<?xml version="1.0" encoding="UTF-8" standalone="no"?>
<!DOCTYPE svg PUBLIC "-//W3C//DTD SVG 1.1//EN" "http://www.w3.org/Graphics/SVG/1.1/DTD/svg11.dtd">
<svg xmlns="http://www.w3.org/2000/svg" version="1.1" viewBox="0.00 0.00 500.00 500.00">
<g stroke-width="2.00" fill="none" stroke-linecap="butt">
<path stroke="#717974" vector-effect="non-scaling-stroke" d="
  M 133.75 430.54
  C 127.29 448.96 154.51 457.49 159.46 438.42"
/>
<path stroke="#e5f3eb" vector-effect="non-scaling-stroke" d="
  M 159.46 438.42
  Q 160.35 436.72 162.77 437.72
  A 0.78 0.78 0.0 0 1 163.25 438.51
  Q 162.93 441.93 165.59 444.09
  A 0.65 0.64 -58.6 0 1 165.77 444.86
  L 165.47 445.51
  Q 165.37 445.71 165.59 445.70
  L 172.22 445.28"
/>
<path stroke="#717974" vector-effect="non-scaling-stroke" d="
  M 172.22 445.28
  L 172.26 448.50
  Q 172.26 449.00 172.76 449.00
  L 174.23 449.00
  Q 174.74 449.00 174.75 448.49
  L 174.84 444.23"
/>
<path stroke="#e5f3eb" vector-effect="non-scaling-stroke" d="
  M 174.84 444.23
  L 175.12 447.61
  A 0.30 0.30 0.0 0 0 175.70 447.66
  L 176.06 446.22
  Q 176.18 445.77 176.57 446.01
  Q 178.30 447.01 178.49 449.09
  A 0.79 0.79 0.0 0 0 179.36 449.81
  L 182.21 449.51
  A 0.88 0.86 67.9 0 1 182.99 449.85
  Q 184.70 452.14 187.30 453.23
  Q 187.51 453.32 187.50 453.25
  Q 187.50 453.12 187.50 452.99
  Q 187.51 452.64 187.86 452.62
  Q 196.37 451.99 204.90 452.19
  C 209.81 452.30 216.48 452.12 223.25 452.62
  Q 225.50 452.78 225.65 450.36
  Q 225.67 450.01 226.02 450.00
  Q 226.28 449.99 226.24 449.68
  Q 226.19 449.36 225.90 449.53
  L 225.56 449.73
  Q 225.13 449.98 224.89 449.54
  C 224.41 448.65 223.53 448.77 222.79 448.11
  Q 221.50 446.95 222.57 446.03"
/>
<path stroke="#717974" vector-effect="non-scaling-stroke" d="
  M 222.57 446.03
  Q 227.33 450.89 233.37 448.38"
/>
<path stroke="#e5f3eb" vector-effect="non-scaling-stroke" d="
  M 233.37 448.38
  Q 237.76 451.44 244.26 449.98
  Q 245.65 449.67 247.30 450.50
  Q 247.78 450.74 247.43 451.16
  C 245.72 453.21 243.43 452.52 242.07 453.92
  C 240.36 455.69 240.50 459.59 242.93 460.85
  C 245.05 461.94 248.61 459.80 250.16 460.58
  Q 250.33 460.66 250.43 460.81
  Q 250.63 461.12 250.95 460.94
  C 253.75 459.36 254.65 465.45 258.24 461.10
  A 1.00 1.00 0.0 0 0 258.47 460.41
  L 258.18 452.34
  A 2.18 2.18 0.0 0 1 260.28 450.08
  L 265.95 449.86
  Q 266.43 449.84 266.65 450.27
  L 267.12 451.24
  Q 267.39 451.80 268.01 451.84
  Q 274.91 452.30 281.80 452.16
  C 286.43 452.06 292.35 452.71 297.62 452.09
  C 300.33 451.77 303.13 452.41 306.03 451.86
  A 1.08 0.29 -44.5 0 0 306.56 451.56
  Q 306.89 451.31 306.64 451.01
  Q 306.36 450.67 306.79 450.58
  Q 308.31 450.28 308.98 451.62
  A 0.52 0.52 0.0 0 0 309.87 451.68
  L 311.19 449.79
  Q 311.40 449.50 311.05 449.57
  L 307.03 450.40
  Q 306.37 450.54 306.96 450.11
  Q 307.07 450.02 307.17 449.93
  Q 307.55 449.53 307.02 449.67
  Q 305.41 450.08 305.21 449.06"
/>
<path stroke="#717974" vector-effect="non-scaling-stroke" d="
  M 305.21 449.06
  Q 309.94 450.11 312.98 446.68
  A 0.44 0.44 0.0 0 1 313.75 446.98
  L 313.75 448.25
  Q 313.75 448.83 314.32 448.94
  Q 316.66 449.42 316.54 447.97"
/>
<path stroke="#e5f3eb" vector-effect="non-scaling-stroke" d="
  M 316.54 447.97
  L 317.43 445.83
  Q 317.57 445.49 317.87 445.69
  L 318.37 446.02
  Q 318.73 446.25 319.16 446.26
  Q 323.38 446.32 327.47 445.29
  A 1.76 1.75 73.3 0 0 328.69 443.01
  Q 327.60 439.88 330.30 438.42
  A 0.67 0.66 83.2 0 0 330.64 437.98
  Q 330.95 436.62 330.61 436.51
  Q 330.14 436.36 330.31 435.91
  L 330.81 434.52"
/>
<path stroke="#717974" vector-effect="non-scaling-stroke" d="
  M 330.81 434.52
  L 331.25 434.50
  Q 331.75 434.47 331.75 434.97
  L 331.75 448.50
  Q 331.75 449.00 332.25 449.00
  L 334.00 449.00
  Q 334.50 449.00 334.50 448.50
  L 334.50 435.00
  Q 334.50 434.52 334.98 434.52
  L 338.86 434.55"
/>
<path stroke="#e5f3eb" vector-effect="non-scaling-stroke" d="
  M 338.86 434.55
  Q 339.11 434.93 338.73 436.04
  Q 338.38 437.02 339.33 436.58
  Q 340.48 436.05 341.66 436.53
  A 0.79 0.79 0.0 0 0 342.74 435.80
  L 342.76 431.09
  A 2.20 2.20 0.0 0 1 344.98 428.90
  L 356.49 429.04
  A 2.08 2.08 0.0 0 0 358.38 426.03
  Q 357.25 423.78 358.16 421.43
  A 1.10 1.09 -83.7 0 1 359.00 420.75
  L 364.86 419.74
  A 0.90 0.90 0.0 0 0 365.58 419.07
  L 366.95 413.46
  A 0.69 0.65 83.2 0 1 367.27 413.03
  Q 369.91 411.53 372.77 412.85
  A 0.69 0.68 -66.7 0 0 373.68 412.48
  C 374.44 410.57 373.85 407.88 374.80 406.47
  Q 375.76 405.05 377.71 406.07
  A 0.67 0.66 32.1 0 0 378.56 405.88
  Q 379.89 404.08 381.97 404.46
  Q 382.45 404.55 382.70 404.14
  Q 383.87 402.21 384.64 400.09
  Q 384.70 399.91 384.81 399.84
  Q 384.97 399.73 385.17 399.73
  Q 385.57 399.71 385.80 399.39
  C 388.10 396.04 390.06 395.22 391.48 391.03
  A 1.26 1.25 89.1 0 1 392.24 390.24
  Q 394.72 389.30 395.59 386.85
  A 0.58 0.58 0.0 0 1 396.42 386.54
  Q 398.28 387.56 400.31 387.14
  Q 400.80 387.04 401.12 386.66
  L 404.47 382.60
  Q 404.77 382.23 404.74 381.75
  C 404.48 377.98 407.63 377.82 410.11 376.48
  Q 410.56 376.24 410.84 375.81
  Q 411.45 374.85 412.52 374.98
  Q 413.00 375.03 413.11 374.56
  L 414.31 369.54
  Q 414.45 368.95 414.98 368.66
  Q 420.01 365.81 421.45 360.20
  Q 421.58 359.67 421.06 359.82
  L 418.83 360.46
  A 0.92 0.91 -88.7 0 0 418.20 361.07
  Q 418.02 361.64 417.55 361.74
  Q 416.97 361.87 417.29 361.36
  C 419.30 358.19 422.25 355.65 424.01 352.76
  Q 425.60 350.14 426.98 347.37
  A 1.53 1.49 -88.5 0 1 427.70 346.67
  C 431.31 344.98 434.51 334.62 435.39 331.39
  C 437.13 325.03 439.92 319.85 442.55 314.10
  Q 442.77 313.61 443.23 313.31
  Q 446.45 311.17 446.70 307.27
  Q 446.74 306.74 447.18 306.43
  L 449.72 304.65
  Q 450.09 304.39 449.96 303.96
  Q 449.11 301.11 450.97 298.64
  A 0.92 0.91 -31.9 0 0 451.14 297.93
  L 450.19 293.02
  Q 450.09 292.50 450.25 292.00
  Q 451.24 288.80 451.13 286.81
  Q 450.58 276.85 451.18 266.73
  A 0.78 0.78 0.0 0 1 452.04 266.00
  Q 454.05 266.20 453.78 263.76
  Q 453.59 262.08 454.07 260.47
  A 1.43 1.42 41.7 0 0 454.01 259.49
  Q 453.37 258.07 452.09 257.18
  A 1.25 1.18 -83.3 0 1 451.65 256.59
  C 449.94 251.83 453.37 248.32 455.21 244.10
  C 456.30 241.59 460.95 240.64 458.07 236.99
  Q 457.79 236.63 457.74 236.18
  C 457.48 233.99 458.00 232.10 455.45 231.00
  A 1.32 1.32 0.0 0 1 454.82 230.40
  C 452.18 225.24 453.68 223.16 455.17 218.10
  Q 455.33 217.56 454.98 217.10
  Q 454.66 216.68 454.67 216.10
  A 0.90 0.90 0.0 0 0 454.43 215.44
  Q 451.58 212.26 450.37 208.19
  Q 450.24 207.75 450.46 207.35
  C 450.98 206.38 450.88 205.86 450.29 204.89
  C 449.03 202.84 448.75 200.41 447.84 198.32
  Q 446.41 195.06 446.11 191.41
  Q 446.07 190.93 445.79 190.52
  C 442.56 185.79 438.45 179.67 435.57 178.89
  A 2.52 2.51 8.5 0 1 433.71 176.39
  Q 433.81 173.39 431.86 171.20
  Q 431.53 170.82 431.43 170.32
  C 430.37 164.97 437.61 165.04 436.79 158.34
  A 1.60 1.59 -73.0 0 0 436.24 157.30
  Q 433.71 155.12 430.54 154.19
  Q 429.95 154.02 429.66 153.49
  Q 427.96 150.40 429.23 145.99
  C 430.24 142.50 427.38 139.26 423.58 140.10
  Q 423.07 140.21 422.73 140.61
  L 419.50 144.38
  Q 419.13 144.82 418.56 144.79
  C 416.74 144.69 415.75 143.56 415.52 141.70
  Q 414.32 132.43 414.15 124.26
  Q 414.08 120.59 411.70 118.04
  Q 411.36 117.67 410.86 117.61
  Q 406.88 117.09 405.83 113.39
  Q 405.69 112.91 405.24 112.71
  L 404.23 112.26
  Q 403.80 112.07 403.48 111.73
  C 401.32 109.41 397.92 110.26 396.00 107.04
  Q 394.30 104.19 394.22 104.09
  C 391.61 100.68 387.72 97.21 387.20 94.27
  Q 387.12 93.82 386.67 93.76
  Q 383.90 93.38 382.72 90.87
  Q 382.50 90.40 382.05 90.13
  Q 377.68 87.53 373.01 85.47
  C 369.23 83.81 367.74 79.86 364.24 77.76
  C 359.62 75.00 354.94 74.00 350.46 70.67
  C 348.15 68.95 346.56 68.88 344.73 66.32
  Q 344.45 65.92 343.97 65.93
  C 341.50 65.99 336.80 66.37 337.06 63.41
  A 1.17 1.17 0.0 0 0 336.88 62.69
  L 334.82 59.37
  Q 334.56 58.95 334.12 58.73
  Q 332.37 57.84 332.11 55.87
  A 1.36 1.35 -1.0 0 0 330.89 54.70
  C 323.09 54.01 315.04 54.34 307.52 51.94
  A 0.99 0.98 89.3 0 1 306.88 51.31
  C 305.48 47.02 302.45 45.94 297.98 46.18
  Q 290.11 46.60 282.48 46.84
  A 2.01 2.00 -86.7 0 0 280.56 48.56
  C 279.79 53.79 267.67 52.25 264.60 50.44
  A 1.94 1.92 -29.1 0 0 263.67 50.18
  Q 252.10 49.90 240.55 49.11
  C 237.85 48.93 234.30 49.95 231.10 48.51
  Q 230.65 48.31 230.18 48.44
  C 227.10 49.29 225.03 51.52 222.32 52.16
  C 218.67 53.02 215.25 52.74 211.87 55.51
  Q 211.44 55.86 211.34 55.32
  C 210.61 51.45 208.48 48.41 204.23 48.10
  C 201.45 47.90 194.22 48.80 193.68 45.17
  A 1.44 1.44 0.0 0 0 191.21 44.39
  C 186.84 48.96 183.23 48.00 177.44 48.24
  C 174.62 48.35 172.48 49.18 173.03 52.42
  Q 173.11 52.92 172.90 53.39
  C 171.42 56.60 162.32 55.46 159.05 55.79
  C 156.57 56.03 154.59 57.51 152.30 58.51
  A 1.50 1.47 -86.2 0 0 151.64 59.10
  L 149.36 62.96
  A 1.05 1.05 0.0 0 1 148.62 63.47
  C 144.96 64.07 142.20 64.16 142.02 68.80
  A 1.12 1.11 -17.5 0 1 141.57 69.65
  C 139.27 71.30 136.68 70.06 134.57 71.66
  C 131.98 73.63 134.93 79.83 128.99 79.01
  C 124.07 78.34 126.74 83.44 124.27 85.67
  C 120.74 88.86 109.69 84.10 110.04 90.81
  A 1.12 1.10 66.1 0 1 109.72 91.66
  C 107.91 93.53 105.67 94.28 103.95 95.87
  C 101.36 98.27 102.75 101.28 98.23 102.46
  Q 95.80 103.09 95.07 103.79
  C 92.76 106.01 93.91 107.90 92.87 110.15
  C 91.92 112.19 89.03 110.55 87.32 111.78
  Q 86.88 112.10 86.90 112.65
  Q 86.99 115.66 84.85 117.56
  A 1.84 1.83 -63.0 0 1 83.51 118.00
  C 76.00 117.36 81.45 124.61 75.37 125.97
  A 1.23 1.23 0.0 0 0 74.56 126.60
  L 71.54 132.34
  A 1.30 1.27 -1.1 0 1 71.01 132.88
  C 65.26 136.12 63.83 139.10 65.27 145.69
  C 65.66 147.49 66.69 148.07 68.35 148.46
  Q 69.62 148.75 68.33 148.91
  L 65.01 149.33
  A 2.61 2.60 88.9 0 0 62.74 151.70
  L 62.39 155.81
  Q 62.35 156.24 61.93 156.24
  L 59.46 156.27
  A 0.07 0.07 0.0 0 0 59.44 156.40
  Q 59.59 156.45 59.75 156.49
  Q 60.15 156.60 59.76 156.76
  Q 57.61 157.60 57.25 159.87
  Q 57.17 160.41 56.80 160.82
  C 53.42 164.62 55.65 167.11 54.83 170.98
  Q 53.99 174.98 50.91 178.03
  A 0.80 0.79 -44.7 0 0 50.90 179.15
  Q 52.05 180.36 52.23 181.35
  Q 52.38 182.22 51.10 183.35
  Q 48.23 185.89 46.75 189.48
  Q 46.55 189.96 46.82 190.41
  L 47.00 190.72
  Q 47.23 191.12 47.07 191.55
  L 45.86 194.86
  Q 45.68 195.35 45.86 195.84
  Q 46.74 198.24 45.10 199.98
  Q 44.71 200.39 44.71 200.95
  Q 44.68 203.64 42.41 204.99
  A 0.36 0.35 81.3 0 0 42.23 205.24
  L 41.32 209.65
  A 0.66 0.65 26.6 0 0 41.54 210.30
  Q 43.14 211.69 42.05 213.57
  A 1.96 1.95 -30.8 0 0 41.79 214.58
  Q 41.80 219.07 41.66 223.52
  C 41.61 224.91 40.93 227.05 41.50 228.99
  Q 41.64 229.44 41.44 229.88
  C 40.35 232.30 40.90 235.00 40.67 237.02
  Q 39.64 246.30 40.47 255.69
  A 1.17 1.15 -22.5 0 1 40.05 256.68
  Q 37.21 259.07 33.82 257.34
  A 0.78 0.78 0.0 0 0 32.89 258.57
  L 34.45 260.25
  Q 34.85 260.68 35.40 260.46
  C 39.11 258.99 42.05 261.30 41.07 265.27
  Q 40.95 265.76 41.22 266.19
  C 44.96 272.26 44.24 279.50 44.44 286.41
  C 44.49 288.18 43.40 289.77 44.74 291.70
  Q 45.03 292.12 45.53 292.13
  L 47.08 292.16
  A 0.64 0.62 77.4 0 1 47.65 292.53
  Q 48.27 293.80 47.93 295.18
  Q 47.81 295.64 48.00 296.08
  Q 49.37 299.25 50.18 302.61
  C 50.94 305.78 52.97 307.98 53.33 311.57
  A 1.11 1.11 0.0 0 0 53.69 312.29
  Q 55.02 313.49 54.66 315.14
  Q 54.58 315.49 54.60 315.86
  Q 54.81 319.40 57.65 320.92
  Q 58.10 321.16 58.18 321.67
  C 58.45 323.34 59.79 324.33 60.32 325.52
  Q 62.05 329.33 62.22 333.61
  A 0.87 0.87 0.0 0 1 61.67 334.46
  Q 58.57 335.68 55.22 335.40
  Q 54.84 335.37 54.75 335.75
  L 54.24 338.03
  A 0.68 0.67 -73.9 0 1 53.36 338.52
  Q 51.99 338.04 52.00 336.47
  Q 52.00 335.92 52.52 335.73
  L 53.85 335.23
  Q 54.36 335.03 54.44 334.49
  Q 54.71 332.69 54.17 331.09
  C 53.15 328.11 53.60 327.33 54.61 324.60
  C 56.43 319.68 49.75 319.43 47.33 321.78
  Q 45.98 323.08 46.12 325.61
  Q 46.48 332.40 49.27 336.49
  Q 51.94 340.42 52.64 343.31
  Q 52.75 343.73 53.18 343.74
  Q 53.71 343.75 53.88 344.08
  Q 55.21 346.66 55.30 348.74
  A 2.83 2.83 0.0 0 0 58.01 351.44
  C 62.54 351.64 61.24 355.21 61.93 357.89
  C 62.69 360.83 62.29 366.04 65.91 366.82
  A 0.60 0.54 -16.7 0 1 66.14 366.93
  L 68.88 368.98
  A 1.09 1.01 -87.9 0 1 69.13 369.27
  L 71.88 374.40
  Q 72.16 374.91 72.73 374.98
  Q 74.74 375.24 76.36 376.44
  Q 76.77 376.74 76.82 377.25
  Q 77.09 379.90 78.90 381.83
  A 1.15 1.14 -20.6 0 0 79.72 382.20
  C 87.72 382.37 83.44 392.53 90.20 390.36
  A 2.03 2.03 0.0 0 1 92.82 392.58
  Q 91.98 398.30 97.29 399.49
  Q 97.80 399.61 97.90 400.12
  Q 98.23 401.80 99.81 401.69
  Q 100.34 401.66 100.52 402.16
  L 101.78 405.86
  A 0.74 0.73 -16.7 0 0 102.66 406.33
  Q 105.05 405.74 106.75 407.30
  Q 107.19 407.70 107.15 408.29
  Q 106.94 411.87 109.61 414.17
  A 1.40 1.39 65.1 0 0 110.51 414.50
  L 114.28 414.50
  A 2.22 2.22 0.0 0 1 116.50 416.80
  Q 116.41 419.18 118.00 420.92
  A 1.28 1.28 0.0 0 0 118.97 421.34
  C 124.24 421.28 133.34 420.52 131.84 427.64
  A 0.67 0.66 13.2 0 0 132.33 428.42
  Q 133.59 428.73 132.69 429.69
  Q 132.26 430.15 132.78 430.51
  Q 133.26 430.85 133.75 430.54"
/>
<path stroke="#747a77" vector-effect="non-scaling-stroke" d="
  M 338.86 434.55
  Q 339.17 433.53 338.96 432.54
  Q 338.84 432.00 338.29 432.00
  L 335.01 432.00
  Q 334.52 432.00 334.51 431.50
  C 334.48 428.86 332.97 420.82 338.36 422.67
  Q 339.00 422.88 339.00 422.21
  L 339.00 420.75
  Q 339.00 420.26 338.52 420.16
  C 330.76 418.62 331.61 426.87 331.77 431.46
  Q 331.79 432.00 331.25 432.00
  L 329.50 432.00
  A 1.28 1.27 -43.3 0 0 329.42 434.55
  Q 329.86 434.58 330.81 434.52"
/>
<path stroke="#747a77" vector-effect="non-scaling-stroke" d="
  M 316.54 447.97
  L 316.39 432.62
  Q 316.38 432.00 315.76 432.00
  L 314.38 432.00
  Q 313.75 432.00 313.75 432.63
  L 313.75 433.99
  Q 313.75 434.74 313.20 434.23
  C 302.11 424.14 292.23 445.08 305.21 449.06"
/>
<path stroke="#747a77" vector-effect="non-scaling-stroke" d="
  M 233.37 448.38
  Q 236.10 446.55 237.03 444.67
  Q 237.27 444.17 236.73 444.05
  Q 234.43 443.51 233.07 445.33
  A 1.78 1.77 8.6 0 1 232.21 445.96
  Q 226.04 447.98 223.51 442.22
  Q 223.20 441.50 223.99 441.50
  L 237.78 441.50
  Q 238.40 441.50 238.35 440.88
  C 236.76 423.14 212.77 434.39 222.57 446.03"
/>
<path stroke="#747a77" vector-effect="non-scaling-stroke" d="
  M 174.84 444.23
  C 174.47 440.77 175.03 433.21 180.40 435.07
  Q 181.00 435.28 180.96 434.65
  L 180.81 432.45
  Q 180.77 431.85 180.18 431.78
  Q 176.72 431.31 175.38 434.34
  Q 174.95 435.31 174.76 434.26
  Q 174.60 433.39 175.02 432.71
  A 0.45 0.45 0.0 0 0 174.65 432.02
  L 172.77 431.99
  Q 172.19 431.98 172.19 432.57
  L 172.22 445.28"
/>
<path stroke="#747a77" vector-effect="non-scaling-stroke" d="
  M 159.46 438.42
  C 161.76 422.47 141.98 416.15 133.75 430.54"
/>
<path stroke="#717974" vector-effect="non-scaling-stroke" d="
  M 353.06 441.50
  L 367.00 441.50
  Q 367.44 441.50 367.46 441.05
  Q 367.61 434.62 362.17 432.30
  C 350.70 427.39 344.02 445.84 356.71 448.93
  Q 362.44 450.32 366.37 444.72
  Q 366.71 444.24 366.14 444.09
  Q 363.72 443.44 362.31 445.35
  A 1.77 1.76 9.6 0 1 361.43 445.97
  Q 355.26 447.91 352.66 442.12
  A 0.44 0.44 0.0 0 1 353.06 441.50"
/>
<path stroke="#798c9c" vector-effect="non-scaling-stroke" d="
  M 384.26 207.82
  L 389.96 205.29
  Q 390.46 205.07 390.58 204.54
  L 400.74 162.45
  A 0.62 0.62 0.0 0 0 400.42 161.76
  L 375.63 149.15
  A 2.18 2.15 45.4 0 0 373.71 149.12
  L 351.15 159.94
  A 0.56 0.55 -36.0 0 1 350.54 159.85
  Q 321.16 132.29 283.80 121.51
  C 279.35 120.23 275.61 115.59 271.96 113.19
  C 248.33 97.69 216.48 101.80 198.72 124.47
  A 1.92 1.92 0.0 0 1 197.95 125.05
  C 170.91 135.80 149.49 149.25 131.06 172.06
  C 129.96 173.42 128.70 174.75 126.74 175.13
  C 111.19 178.14 95.73 184.35 80.93 190.11
  A 0.60 0.59 -11.0 0 0 80.55 190.66
  Q 80.37 213.96 80.60 237.34
  C 80.85 262.10 94.27 283.52 114.85 296.81
  Q 115.26 297.08 115.38 297.56
  C 121.49 323.69 136.38 346.69 155.35 365.28
  C 187.11 396.40 238.05 406.08 280.23 396.66
  C 340.02 383.32 384.14 332.73 390.97 272.25
  Q 394.82 238.18 383.98 208.49
  Q 383.81 208.03 384.26 207.82"
/>
<path stroke="#747a77" vector-effect="non-scaling-stroke" d="
  M 205.01 434.23
  C 194.45 425.56 185.09 441.50 194.89 448.05
  Q 199.63 451.22 204.95 446.75
  Q 205.53 446.27 205.51 447.02
  L 205.47 448.45
  Q 205.46 449.00 206.01 449.00
  L 207.62 449.00
  Q 208.25 449.00 208.25 448.38
  L 208.25 420.50
  Q 208.25 420.00 207.75 420.00
  L 206.00 420.00
  Q 205.50 420.00 205.50 420.50
  L 205.50 433.99
  Q 205.50 434.63 205.01 434.23"
/>
<path stroke="#747a77" vector-effect="non-scaling-stroke" d="
  M 269.55 428.12
  C 267.05 438.34 285.19 434.82 285.57 442.14
  C 285.89 448.34 273.12 448.58 272.10 443.28
  Q 272.00 442.75 271.46 442.75
  L 269.44 442.75
  Q 268.69 442.75 268.92 443.46
  C 271.61 451.67 287.08 451.56 288.24 442.83
  C 289.54 433.01 276.69 436.51 272.88 431.13
  C 271.12 428.66 272.78 426.01 275.42 425.11
  Q 280.85 423.26 284.61 427.95
  A 1.12 1.12 0.0 0 0 286.54 426.86
  C 284.24 420.50 271.32 420.94 269.55 428.12"
/>
<path stroke="#747a77" vector-effect="non-scaling-stroke" d="
  M 253.06 434.18
  Q 252.81 433.39 253.27 432.73
  A 0.45 0.45 0.0 0 0 252.91 432.02
  L 251.02 431.99
  Q 250.52 431.98 250.52 432.48
  L 250.46 448.48
  Q 250.46 449.00 250.98 449.00
  L 252.56 449.00
  Q 253.26 449.00 253.18 448.31
  C 252.74 444.37 252.02 432.88 258.68 435.15
  Q 259.25 435.34 259.25 434.74
  L 259.25 432.51
  A 0.67 0.67 0.0 0 0 258.73 431.86
  Q 255.15 431.07 253.74 434.22
  Q 253.35 435.09 253.06 434.18"
/>
<path stroke="#587f56" vector-effect="non-scaling-stroke" d="
  M 212.45 126.13
  Q 207.29 129.33 204.22 134.96
  C 194.18 153.33 196.03 174.85 212.10 189.14
  Q 212.47 189.47 212.85 189.15
  L 218.27 184.68"
/>
<path stroke="#2a6d3a" vector-effect="non-scaling-stroke" d="
  M 218.27 184.68
  L 225.35 180.73
  Q 225.90 180.42 225.28 180.29
  Q 216.53 178.47 211.40 171.10
  Q 211.02 170.56 211.67 170.45
  Q 222.22 168.55 230.10 175.43
  A 0.39 0.39 0.0 0 0 230.73 175.05
  C 228.68 166.09 222.12 159.71 221.21 150.27
  A 0.53 0.52 -78.8 0 1 221.98 149.75
  Q 238.25 158.43 240.86 176.91
  Q 240.96 177.57 241.62 177.54
  L 244.38 177.40
  Q 244.90 177.37 245.07 176.88
  C 247.81 168.86 254.67 162.55 263.64 164.03
  A 0.35 0.34 22.2 0 1 263.87 164.57
  L 254.41 178.09
  A 0.47 0.47 0.0 0 0 254.68 178.81
  Q 261.35 180.52 267.26 184.35"
/>
<path stroke="#115e3e" vector-effect="non-scaling-stroke" d="
  M 267.26 184.35
  L 270.80 187.11
  A 0.99 0.99 0.0 0 0 272.11 187.03
  C 290.76 168.62 287.43 139.61 266.85 123.89"
/>
<path stroke="#2a6d3a" vector-effect="non-scaling-stroke" d="
  M 266.85 123.89
  Q 238.90 105.83 212.45 126.13"
/>
<path stroke="#32a72c" vector-effect="non-scaling-stroke" d="
  M 266.85 123.89
  Q 265.30 126.45 266.52 128.46
  C 277.95 147.26 282.14 165.92 267.26 184.35"
/>
<path stroke="#79c845" vector-effect="non-scaling-stroke" d="
  M 218.27 184.68
  C 204.16 173.49 201.08 159.03 203.12 141.71
  Q 203.26 140.55 204.38 140.87
  C 210.71 142.69 213.90 139.05 216.09 133.86
  Q 217.58 130.37 220.65 127.99
  Q 220.87 127.82 220.69 127.61
  Q 220.60 127.50 220.47 127.48
  Q 220.31 127.46 220.07 127.64
  Q 218.54 128.75 216.98 129.72
  Q 216.56 129.98 216.12 129.76
  Q 213.74 128.53 212.45 126.13"
/>
<path stroke="#095e84" vector-effect="non-scaling-stroke" d="
  M 295.46 149.42
  Q 298.84 176.63 279.76 195.60
  A 0.49 0.49 0.0 0 0 279.69 196.20
  L 284.04 203.06
  A 0.33 0.32 74.6 0 0 284.29 203.21
  C 328.17 204.19 332.11 263.12 290.83 272.55
  Q 290.29 272.68 290.28 273.23
  L 290.17 284.52
  Q 290.17 285.08 290.55 284.67
  C 296.04 278.75 300.93 274.60 308.88 272.78
  Q 309.37 272.67 309.63 272.23
  C 319.73 254.68 332.35 240.87 352.72 235.68
  C 356.54 234.71 361.81 237.11 359.90 242.06
  A 1.20 1.18 -88.7 0 1 359.18 242.76
  C 345.60 247.53 335.45 252.69 326.63 265.22"
/>
<path stroke="#73849c" vector-effect="non-scaling-stroke" d="
  M 326.63 265.22
  L 322.49 271.60
  Q 322.13 272.16 322.80 272.22
  Q 326.42 272.58 329.49 274.50
  Q 329.96 274.79 330.31 274.38
  L 335.05 268.79"
/>
<path stroke="#095e84" vector-effect="non-scaling-stroke" d="
  M 335.05 268.79
  Q 338.54 264.60 342.27 259.54
  C 344.79 256.14 349.73 255.52 351.05 260.26
  C 351.85 263.17 348.88 266.83 347.06 268.96
  Q 346.72 269.36 347.06 269.77
  L 349.88 273.18
  Q 350.14 273.51 350.43 273.20
  C 352.97 270.52 356.32 263.94 360.80 266.47
  C 367.19 270.07 358.88 278.00 356.67 281.64
  Q 356.41 282.06 356.57 282.53
  Q 360.01 292.65 359.44 303.51"
/>
<path stroke="#115e3e" vector-effect="non-scaling-stroke" d="
  M 359.44 303.51
  C 355.91 335.62 328.56 362.42 300.06 375.06
  Q 272.72 387.18 242.19 379.55"
/>
<path stroke="#2a6d3a" vector-effect="non-scaling-stroke" d="
  M 242.19 379.55
  L 237.99 377.75"
/>
<path stroke="#095e84" vector-effect="non-scaling-stroke" d="
  M 237.99 377.75
  Q 222.39 370.52 213.46 356.68
  Q 213.15 356.19 212.79 356.65
  C 208.03 362.71 202.59 363.97 195.63 366.48"
/>
<path stroke="#2a6d3a" vector-effect="non-scaling-stroke" d="
  M 195.63 366.48
  Q 194.44 365.61 192.28 365.52
  Q 191.75 365.49 191.55 365.98
  L 188.41 373.62
  Q 188.23 374.06 188.66 374.28
  C 211.35 385.48 239.35 391.64 264.61 387.60"
/>
<path stroke="#115e3e" vector-effect="non-scaling-stroke" d="
  M 264.61 387.60
  Q 312.65 381.85 346.31 345.06
  Q 358.62 331.61 365.37 317.99"
/>
<path stroke="#2a6d3a" vector-effect="non-scaling-stroke" d="
  M 365.37 317.99
  C 381.72 285.39 385.72 248.13 373.46 213.63
  Q 373.28 213.10 372.77 213.33
  L 363.61 217.41"
/>
<path stroke="#095e84" vector-effect="non-scaling-stroke" d="
  M 363.61 217.41
  L 348.57 224.52
  A 0.98 0.98 0.0 0 1 347.73 224.52
  L 315.98 209.52
  Q 315.43 209.27 315.57 208.68
  L 323.64 173.48
  Q 323.76 172.98 324.23 172.76
  L 330.35 169.94"
/>
<path stroke="#2a6d3a" vector-effect="non-scaling-stroke" d="
  M 330.35 169.94
  L 339.50 165.68
  A 0.26 0.25 53.5 0 0 339.56 165.26
  Q 318.57 146.51 292.30 136.41
  A 0.49 0.49 0.0 0 0 291.65 137.01
  L 295.46 149.42"
/>
<path stroke="#2aa772" vector-effect="non-scaling-stroke" d="
  M 330.35 169.94
  Q 314.69 156.34 295.46 149.42"
/>
<path stroke="#2aa772" vector-effect="non-scaling-stroke" d="
  M 363.61 217.41
  C 373.97 246.72 371.45 274.23 361.02 303.20"
/>
<path stroke="#119876" vector-effect="non-scaling-stroke" d="
  M 361.02 303.20
  Q 360.18 303.57 359.44 303.51"
/>
<path stroke="#72bdd4" vector-effect="non-scaling-stroke" d="
  M 335.05 268.79
  L 326.63 265.22"
/>
<path stroke="#32a72c" vector-effect="non-scaling-stroke" d="
  M 264.61 387.60
  Q 252.23 384.90 242.19 379.55"
/>
<path stroke="#32a72c" vector-effect="non-scaling-stroke" d="
  M 365.37 317.99
  Q 362.16 310.83 361.02 303.20"
/>
<path stroke="#2aa772" vector-effect="non-scaling-stroke" d="
  M 237.99 377.75
  Q 219.99 375.99 203.52 369.67
  Q 199.84 368.26 195.63 366.48"
/>
<path stroke="#095e84" vector-effect="non-scaling-stroke" d="
  M 158.80 173.89
  L 183.75 175.92
  A 0.82 0.82 0.0 0 1 184.51 176.74
  L 184.48 207.31
  Q 184.48 208.17 185.24 207.77
  Q 193.02 203.67 201.79 203.56
  A 0.90 0.90 0.0 0 0 202.57 203.11
  L 205.30 198.51
  Q 205.58 198.04 205.16 197.69
  Q 185.05 180.85 186.58 153.71"
/>
<path stroke="#2a6d3a" vector-effect="non-scaling-stroke" d="
  M 186.58 153.71
  L 188.88 141.99
  Q 189.04 141.20 188.30 141.54
  Q 163.91 152.82 145.86 172.67
  Q 145.44 173.13 146.06 173.16
  L 158.80 173.89"
/>
<path stroke="#2aa772" vector-effect="non-scaling-stroke" d="
  M 186.58 153.71
  Q 171.44 161.64 158.80 173.89"
/>
<path stroke="#2a6d3a" vector-effect="non-scaling-stroke" d="
  M 332.71 179.66
  A 0.96 0.96 0.0 0 0 332.18 180.32
  L 327.26 203.01
  A 0.96 0.96 0.0 0 0 327.80 204.08
  L 348.12 213.48
  A 0.96 0.96 0.0 0 0 348.92 213.48
  L 381.25 198.45
  A 0.96 0.96 0.0 0 0 381.78 197.81
  L 389.03 168.71
  A 0.96 0.96 0.0 0 0 388.55 167.64
  L 374.70 160.20
  A 0.96 0.96 0.0 0 0 373.83 160.18
  L 332.71 179.66"
/>
<path stroke="#2a6d3a" vector-effect="non-scaling-stroke" d="
  M 100.17 263.99
  L 101.97 267.37
  Q 102.39 268.18 102.62 267.29
  Q 111.80 231.16 144.73 214.82"
/>
<path stroke="#115e3e" vector-effect="non-scaling-stroke" d="
  M 144.73 214.82
  Q 158.25 209.34 172.14 205.47
  Q 172.67 205.32 172.67 204.77
  L 172.69 189.52"
/>
<path stroke="#2a6d3a" vector-effect="non-scaling-stroke" d="
  M 172.69 189.52
  Q 172.89 187.09 172.60 187.08"
/>
<path stroke="#708689" vector-effect="non-scaling-stroke" d="
  M 172.60 187.08
  C 156.18 184.83 138.45 184.01 122.48 188.13
  Q 107.23 192.06 93.09 199.34
  Q 92.65 199.57 92.64 200.07
  Q 92.10 226.56 92.81 239.93
  Q 93.46 251.98 100.17 263.99"
/>
<path stroke="#91cf77" vector-effect="non-scaling-stroke" d="
  M 172.60 187.08
  Q 163.66 188.19 154.92 188.60
  Q 140.93 189.24 137.24 189.76
  Q 116.31 192.70 97.26 202.26
  A 0.83 0.81 77.5 0 0 96.81 202.98
  Q 96.58 222.24 96.88 233.56
  Q 97.26 247.61 100.17 263.99"
/>
<path stroke="#32a72c" vector-effect="non-scaling-stroke" d="
  M 172.69 189.52
  Q 171.63 189.29 171.00 190.01
  Q 160.80 201.61 148.59 211.10
  Q 146.55 212.68 144.73 214.82"
/>
<path stroke="#73849c" vector-effect="non-scaling-stroke" d="
  M 209.75 262.53
  Q 216.06 265.33 222.82 266.66
  Q 223.62 266.82 222.87 267.14
  L 220.62 268.13"
/>
<path stroke="#8492a5" vector-effect="non-scaling-stroke" d="
  M 220.62 268.13
  Q 214.40 270.82 207.52 271.92
  Q 207.07 271.99 207.06 272.45
  L 206.86 298.78
  Q 206.85 299.23 207.29 299.17
  Q 232.77 295.42 258.11 296.73"
/>
<path stroke="#73849c" vector-effect="non-scaling-stroke" d="
  M 258.11 296.73
  L 278.50 298.66
  Q 279.00 298.71 279.00 298.20
  L 279.00 272.47
  Q 279.00 271.87 278.41 271.75
  Q 271.20 270.38 264.64 267.10
  A 0.21 0.21 0.0 0 1 264.66 266.72
  C 268.59 265.39 273.23 262.84 277.31 262.64
  C 281.24 262.44 285.52 262.64 288.85 261.83
  C 314.40 255.56 314.70 217.69 287.55 215.95"
/>
<path stroke="#8492a5" vector-effect="non-scaling-stroke" d="
  M 287.55 215.95
  Q 282.71 215.26 276.09 217.61
  Q 275.52 217.81 275.43 217.21
  C 269.62 179.93 216.17 180.49 211.15 218.32
  Q 211.13 218.53 210.93 218.44
  C 201.02 213.92 188.22 216.32 182.13 225.90
  C 172.69 240.76 181.90 257.97 198.02 261.97
  Q 202.25 263.01 209.75 262.53"
/>
<path stroke="#eef1f6" vector-effect="non-scaling-stroke" d="
  M 287.55 215.95
  Q 293.06 221.39 293.72 224.05
  C 298.27 242.31 280.96 251.19 265.71 251.13
  Q 265.19 251.13 265.54 250.73
  Q 272.60 242.77 276.47 232.82
  A 0.24 0.24 0.0 0 0 276.05 232.60
  C 262.00 251.74 245.27 264.11 220.49 259.17
  C 216.75 258.43 212.83 260.68 209.75 262.53"
/>
<path stroke="#eef1f6" vector-effect="non-scaling-stroke" d="
  M 258.11 296.73
  C 258.51 289.38 259.63 278.44 258.13 271.42
  Q 258.02 270.88 257.48 271.00
  Q 239.63 274.88 222.00 270.28
  A 1.02 1.00 84.8 0 1 221.33 269.71
  L 220.62 268.13"
/>
<path stroke="#2a6d3a" vector-effect="non-scaling-stroke" d="
  M 114.10 280.84
  L 124.77 288.83
  Q 125.23 289.17 125.75 288.91
  L 136.47 283.43"
/>
<path stroke="#115e3e" vector-effect="non-scaling-stroke" d="
  M 136.47 283.43
  Q 156.93 272.16 167.31 252.31
  Q 168.60 249.85 166.95 246.17"
/>
<path stroke="#2a6d3a" vector-effect="non-scaling-stroke" d="
  M 166.95 246.17
  Q 164.32 233.31 170.81 221.15"
/>
<path stroke="#708689" vector-effect="non-scaling-stroke" d="
  M 170.81 221.15
  L 174.45 216.24
  Q 174.74 215.85 174.27 215.97
  C 139.77 224.79 118.23 240.28 110.75 277.02
  Q 110.65 277.51 110.92 277.94
  Q 112.00 279.62 114.10 280.84"
/>
<path stroke="#91cf77" vector-effect="non-scaling-stroke" d="
  M 170.81 221.15
  Q 124.95 234.51 114.10 280.84"
/>
<path stroke="#32a72c" vector-effect="non-scaling-stroke" d="
  M 166.95 246.17
  Q 158.10 263.20 141.59 274.26
  C 137.89 276.74 134.35 278.01 136.47 283.43"
/>
<path stroke="#2a6d3a" vector-effect="non-scaling-stroke" d="
  M 137.21 296.75
  L 128.59 301.17
  Q 128.13 301.41 128.30 301.89
  Q 139.40 334.55 165.01 357.65
  Q 165.44 358.03 165.77 357.56
  L 170.58 350.77
  Q 170.91 350.30 170.50 349.89
  Q 156.06 335.46 146.06 317.70
  Q 145.41 316.53 145.25 314.81"
/>
<path stroke="#095e84" vector-effect="non-scaling-stroke" d="
  M 145.25 314.81
  Q 147.10 311.49 148.28 310.70
  Q 171.97 294.83 195.70 310.71
  Q 196.25 311.07 196.25 310.42
  L 196.25 273.02
  A 0.64 0.64 0.0 0 0 195.73 272.39
  Q 183.76 270.28 175.71 261.30
  A 0.48 0.48 0.0 0 0 174.93 261.39
  C 166.31 277.52 153.24 288.38 137.21 296.75"
/>
<path stroke="#2aa772" vector-effect="non-scaling-stroke" d="
  M 145.25 314.81
  Q 144.41 314.82 144.28 314.53
  Q 140.55 305.87 137.21 296.75"
/>
<path stroke="#095e84" vector-effect="non-scaling-stroke" d="
  M 337.06 316.47
  Q 323.20 330.82 306.37 328.21
  Q 305.83 328.13 305.50 328.55
  C 300.70 334.58 295.78 342.04 291.88 347.17
  Q 287.03 353.56 282.24 359.99
  Q 281.35 361.19 281.67 362.08"
/>
<path stroke="#8492a5" vector-effect="non-scaling-stroke" d="
  M 281.67 362.08
  Q 266.89 366.32 252.62 362.49"
/>
<path stroke="#095e84" vector-effect="non-scaling-stroke" d="
  M 252.62 362.49
  C 249.69 356.46 250.66 351.76 254.97 347.26
  C 264.80 336.97 275.45 327.34 285.78 317.39
  A 0.52 0.52 0.0 0 0 285.42 316.50
  L 227.73 316.55"
/>
<path stroke="#8492a5" vector-effect="non-scaling-stroke" d="
  M 227.73 316.55
  L 219.62 316.59
  Q 219.06 316.59 218.88 317.12
  C 213.59 332.55 217.15 347.79 228.75 359.08
  C 245.80 375.67 273.42 375.42 294.32 366.55
  C 318.00 356.49 343.11 334.54 348.35 308.08
  Q 351.62 291.62 341.30 278.13
  Q 340.92 277.63 340.54 278.13
  L 338.28 281.16
  Q 337.93 281.63 338.23 282.13
  C 344.05 291.72 344.33 302.24 339.26 312.21
  Q 337.98 314.72 337.06 316.47"
/>
<path stroke="#84cbde" vector-effect="non-scaling-stroke" d="
  M 227.73 316.55
  C 222.37 338.88 229.64 356.14 252.62 362.49"
/>
<path stroke="#84cbde" vector-effect="non-scaling-stroke" d="
  M 281.67 362.08
  Q 318.84 350.62 337.06 316.47"
/>
<path stroke="#8492a5" vector-effect="non-scaling-stroke" d="
  M 298.60 316.41
  Q 280.64 334.18 262.32 351.56
  C 254.99 358.51 265.32 366.99 272.37 357.83
  Q 287.21 338.55 301.84 319.07
  Q 302.15 318.66 302.64 318.83
  C 316.71 323.89 330.40 314.03 332.87 300.16
  C 336.45 280.05 314.14 275.29 302.31 287.51
  Q 290.10 300.12 298.71 315.61
  Q 298.96 316.06 298.60 316.41"
/>
<path stroke="#8492a5" vector-effect="non-scaling-stroke" d="
  M 207.53 307.43
  C 231.45 304.24 254.47 304.38 278.40 307.14
  Q 279.07 307.21 279.03 306.54
  L 278.87 303.67
  Q 278.83 303.02 278.18 302.94
  Q 242.77 298.46 207.39 303.25
  A 0.57 0.56 85.4 0 0 206.91 303.82
  L 206.98 306.97
  Q 207.00 307.50 207.53 307.43"
/>
<path stroke="#2a6d3a" vector-effect="non-scaling-stroke" d="
  M 158.67 320.23
  Q 167.71 335.57 181.15 347.42"
/>
<path stroke="#8492a5" vector-effect="non-scaling-stroke" d="
  M 181.15 347.42
  Q 177.54 357.86 169.68 367.00
  A 0.75 0.75 0.0 0 0 169.77 368.08
  L 176.89 373.82
  Q 177.51 374.31 177.82 373.59
  L 185.53 355.78"
/>
<path stroke="#115e3e" vector-effect="non-scaling-stroke" d="
  M 185.53 355.78
  Q 197.97 359.30 205.99 350.09
  A 2.31 2.30 -29.8 0 0 206.52 348.16
  C 205.14 340.51 203.97 333.09 199.12 326.87"
/>
<path stroke="#2a6d3a" vector-effect="non-scaling-stroke" d="
  M 199.12 326.87
  Q 190.99 314.93 177.47 312.12"
/>
<path stroke="#587f56" vector-effect="non-scaling-stroke" d="
  M 177.47 312.12
  Q 166.35 310.05 156.59 315.79
  Q 156.09 316.08 156.39 316.57
  L 158.67 320.23"
/>
<path stroke="#79c845" vector-effect="non-scaling-stroke" d="
  M 177.47 312.12
  Q 178.80 315.43 181.87 317.06
  A 0.34 0.34 0.0 0 1 181.66 317.69
  Q 169.66 315.83 158.67 320.23"
/>
<path stroke="#32a72c" vector-effect="non-scaling-stroke" d="
  M 199.12 326.87
  Q 197.80 327.61 195.97 326.41
  A 0.63 0.63 0.0 0 0 195.12 327.30
  C 201.45 336.04 200.42 350.25 188.90 354.37
  A 0.79 0.78 -29.8 0 1 188.03 354.14
  L 186.59 352.43"
/>
<path stroke="#a5db94" vector-effect="non-scaling-stroke" d="
  M 186.59 352.43
  Q 190.52 339.36 183.80 327.57
  A 0.11 0.11 0.0 0 0 183.60 327.66
  Q 186.27 337.34 181.15 347.42"
/>
<path stroke="#8ccc98" vector-effect="non-scaling-stroke" d="
  M 185.53 355.78
  L 186.59 352.43"
/>
<path stroke="#095e84" vector-effect="non-scaling-stroke" d="
  M 207.28 322.37
  A 0.35 0.35 0.0 0 0 207.89 322.30
  L 210.06 316.90
  A 0.35 0.35 0.0 0 0 209.71 316.42
  L 204.10 316.83
  A 0.35 0.35 0.0 0 0 203.84 317.37
  L 207.28 322.37"
/>
<path stroke="#a5db94" vector-effect="non-scaling-stroke" d="
  M 356.32 189.28
  Q 355.43 190.20 354.70 189.15
  C 353.01 186.73 349.89 182.92 346.73 183.13
  C 343.71 183.33 341.28 186.95 343.74 189.51
  Q 345.47 191.30 350.95 196.47
  C 353.75 199.11 356.75 200.71 359.75 197.50
  Q 368.61 188.06 377.60 178.73
  C 382.05 174.12 375.83 168.73 371.51 173.36
  Q 363.80 181.62 356.32 189.28"
/>
<path stroke="#8492a5" vector-effect="non-scaling-stroke" d="
  M 315.1224 290.0988
  A 1.70 1.70 0.0 0 0 314.9714 287.6994
  L 314.8964 287.6333
  A 1.70 1.70 0.0 0 0 312.4970 287.7842
  L 300.8976 300.9412
  A 1.70 1.70 0.0 0 0 301.0486 303.3406
  L 301.1236 303.4067
  A 1.70 1.70 0.0 0 0 303.5230 303.2558
  L 315.1224 290.0988"
/>
<path stroke="#8492a5" vector-effect="non-scaling-stroke" d="
  M 322.4508 293.9712
  A 1.62 1.62 0.0 0 0 322.3030 291.6849
  L 322.0926 291.5001
  A 1.62 1.62 0.0 0 0 319.8064 291.6480
  L 306.3292 306.9888
  A 1.62 1.62 0.0 0 0 306.4770 309.2751
  L 306.6874 309.4599
  A 1.62 1.62 0.0 0 0 308.9736 309.3120
  L 322.4508 293.9712"
/>
<path stroke="#8492a5" vector-effect="non-scaling-stroke" d="
  M 327.3778 300.6356
  A 1.41 1.41 0.0 0 0 327.2560 298.6453
  L 326.8216 298.2610
  A 1.41 1.41 0.0 0 0 324.8313 298.3827
  L 313.2222 311.5044
  A 1.41 1.41 0.0 0 0 313.3440 313.4947
  L 313.7784 313.8790
  A 1.41 1.41 0.0 0 0 315.7687 313.7573
  L 327.3778 300.6356"
/>
<path stroke="#717974" vector-effect="non-scaling-stroke" d="
  M 205.40 440.50
  A 5.97 5.97 0.0 0 0 199.43 434.53
  A 5.97 5.97 0.0 0 0 193.46 440.50
  A 5.97 5.97 0.0 0 0 199.43 446.47
  A 5.97 5.97 0.0 0 0 205.40 440.50"
/>
<path stroke="#717974" vector-effect="non-scaling-stroke" d="
  M 157.01 435.80
  A 10.77 10.77 0.0 0 0 146.24 425.03
  A 10.77 10.77 0.0 0 0 135.47 435.80
  A 10.77 10.77 0.0 0 0 146.24 446.57
  A 10.77 10.77 0.0 0 0 157.01 435.80"
/>
<path stroke="#717974" vector-effect="non-scaling-stroke" d="
  M 235.15 438.75
  C 233.90 433.39 227.72 433.29 224.26 436.85
  Q 221.94 439.25 225.28 439.25
  L 234.75 439.25
  Q 235.26 439.25 235.15 438.75"
/>
<path stroke="#717974" vector-effect="non-scaling-stroke" d="
  M 364.40 438.73
  C 362.90 432.95 354.37 432.79 352.87 438.75
  Q 352.74 439.25 353.25 439.25
  L 364.00 439.25
  Q 364.54 439.25 364.40 438.73"
/>
<path stroke="#717974" vector-effect="non-scaling-stroke" d="
  M 313.65 440.49
  A 5.97 5.97 0.0 0 0 307.68 434.52
  A 5.97 5.97 0.0 0 0 301.71 440.49
  A 5.97 5.97 0.0 0 0 307.68 446.46
  A 5.97 5.97 0.0 0 0 313.65 440.49"
/>
</g>
<path fill="#e2f2e8" d="
  M 0.00 0.00
  L 500.00 0.00
  L 500.00 500.00
  L 0.00 500.00
  L 0.00 0.00
  Z
  M 133.75 430.54
  C 127.29 448.96 154.51 457.49 159.46 438.42
  Q 160.35 436.72 162.77 437.72
  A 0.78 0.78 0.0 0 1 163.25 438.51
  Q 162.93 441.93 165.59 444.09
  A 0.65 0.64 -58.6 0 1 165.77 444.86
  L 165.47 445.51
  Q 165.37 445.71 165.59 445.70
  L 172.22 445.28
  L 172.26 448.50
  Q 172.26 449.00 172.76 449.00
  L 174.23 449.00
  Q 174.74 449.00 174.75 448.49
  L 174.84 444.23
  L 175.12 447.61
  A 0.30 0.30 0.0 0 0 175.70 447.66
  L 176.06 446.22
  Q 176.18 445.77 176.57 446.01
  Q 178.30 447.01 178.49 449.09
  A 0.79 0.79 0.0 0 0 179.36 449.81
  L 182.21 449.51
  A 0.88 0.86 67.9 0 1 182.99 449.85
  Q 184.70 452.14 187.30 453.23
  Q 187.51 453.32 187.50 453.25
  Q 187.50 453.12 187.50 452.99
  Q 187.51 452.64 187.86 452.62
  Q 196.37 451.99 204.90 452.19
  C 209.81 452.30 216.48 452.12 223.25 452.62
  Q 225.50 452.78 225.65 450.36
  Q 225.67 450.01 226.02 450.00
  Q 226.28 449.99 226.24 449.68
  Q 226.19 449.36 225.90 449.53
  L 225.56 449.73
  Q 225.13 449.98 224.89 449.54
  C 224.41 448.65 223.53 448.77 222.79 448.11
  Q 221.50 446.95 222.57 446.03
  Q 227.33 450.89 233.37 448.38
  Q 237.76 451.44 244.26 449.98
  Q 245.65 449.67 247.30 450.50
  Q 247.78 450.74 247.43 451.16
  C 245.72 453.21 243.43 452.52 242.07 453.92
  C 240.36 455.69 240.50 459.59 242.93 460.85
  C 245.05 461.94 248.61 459.80 250.16 460.58
  Q 250.33 460.66 250.43 460.81
  Q 250.63 461.12 250.95 460.94
  C 253.75 459.36 254.65 465.45 258.24 461.10
  A 1.00 1.00 0.0 0 0 258.47 460.41
  L 258.18 452.34
  A 2.18 2.18 0.0 0 1 260.28 450.08
  L 265.95 449.86
  Q 266.43 449.84 266.65 450.27
  L 267.12 451.24
  Q 267.39 451.80 268.01 451.84
  Q 274.91 452.30 281.80 452.16
  C 286.43 452.06 292.35 452.71 297.62 452.09
  C 300.33 451.77 303.13 452.41 306.03 451.86
  A 1.08 0.29 -44.5 0 0 306.56 451.56
  Q 306.89 451.31 306.64 451.01
  Q 306.36 450.67 306.79 450.58
  Q 308.31 450.28 308.98 451.62
  A 0.52 0.52 0.0 0 0 309.87 451.68
  L 311.19 449.79
  Q 311.40 449.50 311.05 449.57
  L 307.03 450.40
  Q 306.37 450.54 306.96 450.11
  Q 307.07 450.02 307.17 449.93
  Q 307.55 449.53 307.02 449.67
  Q 305.41 450.08 305.21 449.06
  Q 309.94 450.11 312.98 446.68
  A 0.44 0.44 0.0 0 1 313.75 446.98
  L 313.75 448.25
  Q 313.75 448.83 314.32 448.94
  Q 316.66 449.42 316.54 447.97
  L 317.43 445.83
  Q 317.57 445.49 317.87 445.69
  L 318.37 446.02
  Q 318.73 446.25 319.16 446.26
  Q 323.38 446.32 327.47 445.29
  A 1.76 1.75 73.3 0 0 328.69 443.01
  Q 327.60 439.88 330.30 438.42
  A 0.67 0.66 83.2 0 0 330.64 437.98
  Q 330.95 436.62 330.61 436.51
  Q 330.14 436.36 330.31 435.91
  L 330.81 434.52
  L 331.25 434.50
  Q 331.75 434.47 331.75 434.97
  L 331.75 448.50
  Q 331.75 449.00 332.25 449.00
  L 334.00 449.00
  Q 334.50 449.00 334.50 448.50
  L 334.50 435.00
  Q 334.50 434.52 334.98 434.52
  L 338.86 434.55
  Q 339.11 434.93 338.73 436.04
  Q 338.38 437.02 339.33 436.58
  Q 340.48 436.05 341.66 436.53
  A 0.79 0.79 0.0 0 0 342.74 435.80
  L 342.76 431.09
  A 2.20 2.20 0.0 0 1 344.98 428.90
  L 356.49 429.04
  A 2.08 2.08 0.0 0 0 358.38 426.03
  Q 357.25 423.78 358.16 421.43
  A 1.10 1.09 -83.7 0 1 359.00 420.75
  L 364.86 419.74
  A 0.90 0.90 0.0 0 0 365.58 419.07
  L 366.95 413.46
  A 0.69 0.65 83.2 0 1 367.27 413.03
  Q 369.91 411.53 372.77 412.85
  A 0.69 0.68 -66.7 0 0 373.68 412.48
  C 374.44 410.57 373.85 407.88 374.80 406.47
  Q 375.76 405.05 377.71 406.07
  A 0.67 0.66 32.1 0 0 378.56 405.88
  Q 379.89 404.08 381.97 404.46
  Q 382.45 404.55 382.70 404.14
  Q 383.87 402.21 384.64 400.09
  Q 384.70 399.91 384.81 399.84
  Q 384.97 399.73 385.17 399.73
  Q 385.57 399.71 385.80 399.39
  C 388.10 396.04 390.06 395.22 391.48 391.03
  A 1.26 1.25 89.1 0 1 392.24 390.24
  Q 394.72 389.30 395.59 386.85
  A 0.58 0.58 0.0 0 1 396.42 386.54
  Q 398.28 387.56 400.31 387.14
  Q 400.80 387.04 401.12 386.66
  L 404.47 382.60
  Q 404.77 382.23 404.74 381.75
  C 404.48 377.98 407.63 377.82 410.11 376.48
  Q 410.56 376.24 410.84 375.81
  Q 411.45 374.85 412.52 374.98
  Q 413.00 375.03 413.11 374.56
  L 414.31 369.54
  Q 414.45 368.95 414.98 368.66
  Q 420.01 365.81 421.45 360.20
  Q 421.58 359.67 421.06 359.82
  L 418.83 360.46
  A 0.92 0.91 -88.7 0 0 418.20 361.07
  Q 418.02 361.64 417.55 361.74
  Q 416.97 361.87 417.29 361.36
  C 419.30 358.19 422.25 355.65 424.01 352.76
  Q 425.60 350.14 426.98 347.37
  A 1.53 1.49 -88.5 0 1 427.70 346.67
  C 431.31 344.98 434.51 334.62 435.39 331.39
  C 437.13 325.03 439.92 319.85 442.55 314.10
  Q 442.77 313.61 443.23 313.31
  Q 446.45 311.17 446.70 307.27
  Q 446.74 306.74 447.18 306.43
  L 449.72 304.65
  Q 450.09 304.39 449.96 303.96
  Q 449.11 301.11 450.97 298.64
  A 0.92 0.91 -31.9 0 0 451.14 297.93
  L 450.19 293.02
  Q 450.09 292.50 450.25 292.00
  Q 451.24 288.80 451.13 286.81
  Q 450.58 276.85 451.18 266.73
  A 0.78 0.78 0.0 0 1 452.04 266.00
  Q 454.05 266.20 453.78 263.76
  Q 453.59 262.08 454.07 260.47
  A 1.43 1.42 41.7 0 0 454.01 259.49
  Q 453.37 258.07 452.09 257.18
  A 1.25 1.18 -83.3 0 1 451.65 256.59
  C 449.94 251.83 453.37 248.32 455.21 244.10
  C 456.30 241.59 460.95 240.64 458.07 236.99
  Q 457.79 236.63 457.74 236.18
  C 457.48 233.99 458.00 232.10 455.45 231.00
  A 1.32 1.32 0.0 0 1 454.82 230.40
  C 452.18 225.24 453.68 223.16 455.17 218.10
  Q 455.33 217.56 454.98 217.10
  Q 454.66 216.68 454.67 216.10
  A 0.90 0.90 0.0 0 0 454.43 215.44
  Q 451.58 212.26 450.37 208.19
  Q 450.24 207.75 450.46 207.35
  C 450.98 206.38 450.88 205.86 450.29 204.89
  C 449.03 202.84 448.75 200.41 447.84 198.32
  Q 446.41 195.06 446.11 191.41
  Q 446.07 190.93 445.79 190.52
  C 442.56 185.79 438.45 179.67 435.57 178.89
  A 2.52 2.51 8.5 0 1 433.71 176.39
  Q 433.81 173.39 431.86 171.20
  Q 431.53 170.82 431.43 170.32
  C 430.37 164.97 437.61 165.04 436.79 158.34
  A 1.60 1.59 -73.0 0 0 436.24 157.30
  Q 433.71 155.12 430.54 154.19
  Q 429.95 154.02 429.66 153.49
  Q 427.96 150.40 429.23 145.99
  C 430.24 142.50 427.38 139.26 423.58 140.10
  Q 423.07 140.21 422.73 140.61
  L 419.50 144.38
  Q 419.13 144.82 418.56 144.79
  C 416.74 144.69 415.75 143.56 415.52 141.70
  Q 414.32 132.43 414.15 124.26
  Q 414.08 120.59 411.70 118.04
  Q 411.36 117.67 410.86 117.61
  Q 406.88 117.09 405.83 113.39
  Q 405.69 112.91 405.24 112.71
  L 404.23 112.26
  Q 403.80 112.07 403.48 111.73
  C 401.32 109.41 397.92 110.26 396.00 107.04
  Q 394.30 104.19 394.22 104.09
  C 391.61 100.68 387.72 97.21 387.20 94.27
  Q 387.12 93.82 386.67 93.76
  Q 383.90 93.38 382.72 90.87
  Q 382.50 90.40 382.05 90.13
  Q 377.68 87.53 373.01 85.47
  C 369.23 83.81 367.74 79.86 364.24 77.76
  C 359.62 75.00 354.94 74.00 350.46 70.67
  C 348.15 68.95 346.56 68.88 344.73 66.32
  Q 344.45 65.92 343.97 65.93
  C 341.50 65.99 336.80 66.37 337.06 63.41
  A 1.17 1.17 0.0 0 0 336.88 62.69
  L 334.82 59.37
  Q 334.56 58.95 334.12 58.73
  Q 332.37 57.84 332.11 55.87
  A 1.36 1.35 -1.0 0 0 330.89 54.70
  C 323.09 54.01 315.04 54.34 307.52 51.94
  A 0.99 0.98 89.3 0 1 306.88 51.31
  C 305.48 47.02 302.45 45.94 297.98 46.18
  Q 290.11 46.60 282.48 46.84
  A 2.01 2.00 -86.7 0 0 280.56 48.56
  C 279.79 53.79 267.67 52.25 264.60 50.44
  A 1.94 1.92 -29.1 0 0 263.67 50.18
  Q 252.10 49.90 240.55 49.11
  C 237.85 48.93 234.30 49.95 231.10 48.51
  Q 230.65 48.31 230.18 48.44
  C 227.10 49.29 225.03 51.52 222.32 52.16
  C 218.67 53.02 215.25 52.74 211.87 55.51
  Q 211.44 55.86 211.34 55.32
  C 210.61 51.45 208.48 48.41 204.23 48.10
  C 201.45 47.90 194.22 48.80 193.68 45.17
  A 1.44 1.44 0.0 0 0 191.21 44.39
  C 186.84 48.96 183.23 48.00 177.44 48.24
  C 174.62 48.35 172.48 49.18 173.03 52.42
  Q 173.11 52.92 172.90 53.39
  C 171.42 56.60 162.32 55.46 159.05 55.79
  C 156.57 56.03 154.59 57.51 152.30 58.51
  A 1.50 1.47 -86.2 0 0 151.64 59.10
  L 149.36 62.96
  A 1.05 1.05 0.0 0 1 148.62 63.47
  C 144.96 64.07 142.20 64.16 142.02 68.80
  A 1.12 1.11 -17.5 0 1 141.57 69.65
  C 139.27 71.30 136.68 70.06 134.57 71.66
  C 131.98 73.63 134.93 79.83 128.99 79.01
  C 124.07 78.34 126.74 83.44 124.27 85.67
  C 120.74 88.86 109.69 84.10 110.04 90.81
  A 1.12 1.10 66.1 0 1 109.72 91.66
  C 107.91 93.53 105.67 94.28 103.95 95.87
  C 101.36 98.27 102.75 101.28 98.23 102.46
  Q 95.80 103.09 95.07 103.79
  C 92.76 106.01 93.91 107.90 92.87 110.15
  C 91.92 112.19 89.03 110.55 87.32 111.78
  Q 86.88 112.10 86.90 112.65
  Q 86.99 115.66 84.85 117.56
  A 1.84 1.83 -63.0 0 1 83.51 118.00
  C 76.00 117.36 81.45 124.61 75.37 125.97
  A 1.23 1.23 0.0 0 0 74.56 126.60
  L 71.54 132.34
  A 1.30 1.27 -1.1 0 1 71.01 132.88
  C 65.26 136.12 63.83 139.10 65.27 145.69
  C 65.66 147.49 66.69 148.07 68.35 148.46
  Q 69.62 148.75 68.33 148.91
  L 65.01 149.33
  A 2.61 2.60 88.9 0 0 62.74 151.70
  L 62.39 155.81
  Q 62.35 156.24 61.93 156.24
  L 59.46 156.27
  A 0.07 0.07 0.0 0 0 59.44 156.40
  Q 59.59 156.45 59.75 156.49
  Q 60.15 156.60 59.76 156.76
  Q 57.61 157.60 57.25 159.87
  Q 57.17 160.41 56.80 160.82
  C 53.42 164.62 55.65 167.11 54.83 170.98
  Q 53.99 174.98 50.91 178.03
  A 0.80 0.79 -44.7 0 0 50.90 179.15
  Q 52.05 180.36 52.23 181.35
  Q 52.38 182.22 51.10 183.35
  Q 48.23 185.89 46.75 189.48
  Q 46.55 189.96 46.82 190.41
  L 47.00 190.72
  Q 47.23 191.12 47.07 191.55
  L 45.86 194.86
  Q 45.68 195.35 45.86 195.84
  Q 46.74 198.24 45.10 199.98
  Q 44.71 200.39 44.71 200.95
  Q 44.68 203.64 42.41 204.99
  A 0.36 0.35 81.3 0 0 42.23 205.24
  L 41.32 209.65
  A 0.66 0.65 26.6 0 0 41.54 210.30
  Q 43.14 211.69 42.05 213.57
  A 1.96 1.95 -30.8 0 0 41.79 214.58
  Q 41.80 219.07 41.66 223.52
  C 41.61 224.91 40.93 227.05 41.50 228.99
  Q 41.64 229.44 41.44 229.88
  C 40.35 232.30 40.90 235.00 40.67 237.02
  Q 39.64 246.30 40.47 255.69
  A 1.17 1.15 -22.5 0 1 40.05 256.68
  Q 37.21 259.07 33.82 257.34
  A 0.78 0.78 0.0 0 0 32.89 258.57
  L 34.45 260.25
  Q 34.85 260.68 35.40 260.46
  C 39.11 258.99 42.05 261.30 41.07 265.27
  Q 40.95 265.76 41.22 266.19
  C 44.96 272.26 44.24 279.50 44.44 286.41
  C 44.49 288.18 43.40 289.77 44.74 291.70
  Q 45.03 292.12 45.53 292.13
  L 47.08 292.16
  A 0.64 0.62 77.4 0 1 47.65 292.53
  Q 48.27 293.80 47.93 295.18
  Q 47.81 295.64 48.00 296.08
  Q 49.37 299.25 50.18 302.61
  C 50.94 305.78 52.97 307.98 53.33 311.57
  A 1.11 1.11 0.0 0 0 53.69 312.29
  Q 55.02 313.49 54.66 315.14
  Q 54.58 315.49 54.60 315.86
  Q 54.81 319.40 57.65 320.92
  Q 58.10 321.16 58.18 321.67
  C 58.45 323.34 59.79 324.33 60.32 325.52
  Q 62.05 329.33 62.22 333.61
  A 0.87 0.87 0.0 0 1 61.67 334.46
  Q 58.57 335.68 55.22 335.40
  Q 54.84 335.37 54.75 335.75
  L 54.24 338.03
  A 0.68 0.67 -73.9 0 1 53.36 338.52
  Q 51.99 338.04 52.00 336.47
  Q 52.00 335.92 52.52 335.73
  L 53.85 335.23
  Q 54.36 335.03 54.44 334.49
  Q 54.71 332.69 54.17 331.09
  C 53.15 328.11 53.60 327.33 54.61 324.60
  C 56.43 319.68 49.75 319.43 47.33 321.78
  Q 45.98 323.08 46.12 325.61
  Q 46.48 332.40 49.27 336.49
  Q 51.94 340.42 52.64 343.31
  Q 52.75 343.73 53.18 343.74
  Q 53.71 343.75 53.88 344.08
  Q 55.21 346.66 55.30 348.74
  A 2.83 2.83 0.0 0 0 58.01 351.44
  C 62.54 351.64 61.24 355.21 61.93 357.89
  C 62.69 360.83 62.29 366.04 65.91 366.82
  A 0.60 0.54 -16.7 0 1 66.14 366.93
  L 68.88 368.98
  A 1.09 1.01 -87.9 0 1 69.13 369.27
  L 71.88 374.40
  Q 72.16 374.91 72.73 374.98
  Q 74.74 375.24 76.36 376.44
  Q 76.77 376.74 76.82 377.25
  Q 77.09 379.90 78.90 381.83
  A 1.15 1.14 -20.6 0 0 79.72 382.20
  C 87.72 382.37 83.44 392.53 90.20 390.36
  A 2.03 2.03 0.0 0 1 92.82 392.58
  Q 91.98 398.30 97.29 399.49
  Q 97.80 399.61 97.90 400.12
  Q 98.23 401.80 99.81 401.69
  Q 100.34 401.66 100.52 402.16
  L 101.78 405.86
  A 0.74 0.73 -16.7 0 0 102.66 406.33
  Q 105.05 405.74 106.75 407.30
  Q 107.19 407.70 107.15 408.29
  Q 106.94 411.87 109.61 414.17
  A 1.40 1.39 65.1 0 0 110.51 414.50
  L 114.28 414.50
  A 2.22 2.22 0.0 0 1 116.50 416.80
  Q 116.41 419.18 118.00 420.92
  A 1.28 1.28 0.0 0 0 118.97 421.34
  C 124.24 421.28 133.34 420.52 131.84 427.64
  A 0.67 0.66 13.2 0 0 132.33 428.42
  Q 133.59 428.73 132.69 429.69
  Q 132.26 430.15 132.78 430.51
  Q 133.26 430.85 133.75 430.54
  Z
  M 353.06 441.50
  L 367.00 441.50
  Q 367.44 441.50 367.46 441.05
  Q 367.61 434.62 362.17 432.30
  C 350.70 427.39 344.02 445.84 356.71 448.93
  Q 362.44 450.32 366.37 444.72
  Q 366.71 444.24 366.14 444.09
  Q 363.72 443.44 362.31 445.35
  A 1.77 1.76 9.6 0 1 361.43 445.97
  Q 355.26 447.91 352.66 442.12
  A 0.44 0.44 0.0 0 1 353.06 441.50
  Z"
/>
<path fill="#e8f4ed" d="
  M 338.86 434.55
  Q 339.17 433.53 338.96 432.54
  Q 338.84 432.00 338.29 432.00
  L 335.01 432.00
  Q 334.52 432.00 334.51 431.50
  C 334.48 428.86 332.97 420.82 338.36 422.67
  Q 339.00 422.88 339.00 422.21
  L 339.00 420.75
  Q 339.00 420.26 338.52 420.16
  C 330.76 418.62 331.61 426.87 331.77 431.46
  Q 331.79 432.00 331.25 432.00
  L 329.50 432.00
  A 1.28 1.27 -43.3 0 0 329.42 434.55
  Q 329.86 434.58 330.81 434.52
  L 330.31 435.91
  Q 330.14 436.36 330.61 436.51
  Q 330.95 436.62 330.64 437.98
  A 0.67 0.66 83.2 0 1 330.30 438.42
  Q 327.60 439.88 328.69 443.01
  A 1.76 1.75 73.3 0 1 327.47 445.29
  Q 323.38 446.32 319.16 446.26
  Q 318.73 446.25 318.37 446.02
  L 317.87 445.69
  Q 317.57 445.49 317.43 445.83
  L 316.54 447.97
  L 316.39 432.62
  Q 316.38 432.00 315.76 432.00
  L 314.38 432.00
  Q 313.75 432.00 313.75 432.63
  L 313.75 433.99
  Q 313.75 434.74 313.20 434.23
  C 302.11 424.14 292.23 445.08 305.21 449.06
  Q 305.41 450.08 307.02 449.67
  Q 307.55 449.53 307.17 449.93
  Q 307.07 450.02 306.96 450.11
  Q 306.37 450.54 307.03 450.40
  L 311.05 449.57
  Q 311.40 449.50 311.19 449.79
  L 309.87 451.68
  A 0.52 0.52 0.0 0 1 308.98 451.62
  Q 308.31 450.28 306.79 450.58
  Q 306.36 450.67 306.64 451.01
  Q 306.89 451.31 306.56 451.56
  A 1.08 0.29 -44.5 0 1 306.03 451.86
  C 303.13 452.41 300.33 451.77 297.62 452.09
  C 292.35 452.71 286.43 452.06 281.80 452.16
  Q 274.91 452.30 268.01 451.84
  Q 267.39 451.80 267.12 451.24
  L 266.65 450.27
  Q 266.43 449.84 265.95 449.86
  L 260.28 450.08
  A 2.18 2.18 0.0 0 0 258.18 452.34
  L 258.47 460.41
  A 1.00 1.00 0.0 0 1 258.24 461.10
  C 254.65 465.45 253.75 459.36 250.95 460.94
  Q 250.63 461.12 250.43 460.81
  Q 250.33 460.66 250.16 460.58
  C 248.61 459.80 245.05 461.94 242.93 460.85
  C 240.50 459.59 240.36 455.69 242.07 453.92
  C 243.43 452.52 245.72 453.21 247.43 451.16
  Q 247.78 450.74 247.30 450.50
  Q 245.65 449.67 244.26 449.98
  Q 237.76 451.44 233.37 448.38
  Q 236.10 446.55 237.03 444.67
  Q 237.27 444.17 236.73 444.05
  Q 234.43 443.51 233.07 445.33
  A 1.78 1.77 8.6 0 1 232.21 445.96
  Q 226.04 447.98 223.51 442.22
  Q 223.20 441.50 223.99 441.50
  L 237.78 441.50
  Q 238.40 441.50 238.35 440.88
  C 236.76 423.14 212.77 434.39 222.57 446.03
  Q 221.50 446.95 222.79 448.11
  C 223.53 448.77 224.41 448.65 224.89 449.54
  Q 225.13 449.98 225.56 449.73
  L 225.90 449.53
  Q 226.19 449.36 226.24 449.68
  Q 226.28 449.99 226.02 450.00
  Q 225.67 450.01 225.65 450.36
  Q 225.50 452.78 223.25 452.62
  C 216.48 452.12 209.81 452.30 204.90 452.19
  Q 196.37 451.99 187.86 452.62
  Q 187.51 452.64 187.50 452.99
  Q 187.50 453.12 187.50 453.25
  Q 187.51 453.32 187.30 453.23
  Q 184.70 452.14 182.99 449.85
  A 0.88 0.86 67.9 0 0 182.21 449.51
  L 179.36 449.81
  A 0.79 0.79 0.0 0 1 178.49 449.09
  Q 178.30 447.01 176.57 446.01
  Q 176.18 445.77 176.06 446.22
  L 175.70 447.66
  A 0.30 0.30 0.0 0 1 175.12 447.61
  L 174.84 444.23
  C 174.47 440.77 175.03 433.21 180.40 435.07
  Q 181.00 435.28 180.96 434.65
  L 180.81 432.45
  Q 180.77 431.85 180.18 431.78
  Q 176.72 431.31 175.38 434.34
  Q 174.95 435.31 174.76 434.26
  Q 174.60 433.39 175.02 432.71
  A 0.45 0.45 0.0 0 0 174.65 432.02
  L 172.77 431.99
  Q 172.19 431.98 172.19 432.57
  L 172.22 445.28
  L 165.59 445.70
  Q 165.37 445.71 165.47 445.51
  L 165.77 444.86
  A 0.65 0.64 -58.6 0 0 165.59 444.09
  Q 162.93 441.93 163.25 438.51
  A 0.78 0.78 0.0 0 0 162.77 437.72
  Q 160.35 436.72 159.46 438.42
  C 161.76 422.47 141.98 416.15 133.75 430.54
  Q 133.26 430.85 132.78 430.51
  Q 132.26 430.15 132.69 429.69
  Q 133.59 428.73 132.33 428.42
  A 0.67 0.66 13.2 0 1 131.84 427.64
  C 133.34 420.52 124.24 421.28 118.97 421.34
  A 1.28 1.28 0.0 0 1 118.00 420.92
  Q 116.41 419.18 116.50 416.80
  A 2.22 2.22 0.0 0 0 114.28 414.50
  L 110.51 414.50
  A 1.40 1.39 65.1 0 1 109.61 414.17
  Q 106.94 411.87 107.15 408.29
  Q 107.19 407.70 106.75 407.30
  Q 105.05 405.74 102.66 406.33
  A 0.74 0.73 -16.7 0 1 101.78 405.86
  L 100.52 402.16
  Q 100.34 401.66 99.81 401.69
  Q 98.23 401.80 97.90 400.12
  Q 97.80 399.61 97.29 399.49
  Q 91.98 398.30 92.82 392.58
  A 2.03 2.03 0.0 0 0 90.20 390.36
  C 83.44 392.53 87.72 382.37 79.72 382.20
  A 1.15 1.14 -20.6 0 1 78.90 381.83
  Q 77.09 379.90 76.82 377.25
  Q 76.77 376.74 76.36 376.44
  Q 74.74 375.24 72.73 374.98
  Q 72.16 374.91 71.88 374.40
  L 69.13 369.27
  A 1.09 1.01 -87.9 0 0 68.88 368.98
  L 66.14 366.93
  A 0.60 0.54 -16.7 0 0 65.91 366.82
  C 62.29 366.04 62.69 360.83 61.93 357.89
  C 61.24 355.21 62.54 351.64 58.01 351.44
  A 2.83 2.83 0.0 0 1 55.30 348.74
  Q 55.21 346.66 53.88 344.08
  Q 53.71 343.75 53.18 343.74
  Q 52.75 343.73 52.64 343.31
  Q 51.94 340.42 49.27 336.49
  Q 46.48 332.40 46.12 325.61
  Q 45.98 323.08 47.33 321.78
  C 49.75 319.43 56.43 319.68 54.61 324.60
  C 53.60 327.33 53.15 328.11 54.17 331.09
  Q 54.71 332.69 54.44 334.49
  Q 54.36 335.03 53.85 335.23
  L 52.52 335.73
  Q 52.00 335.92 52.00 336.47
  Q 51.99 338.04 53.36 338.52
  A 0.68 0.67 -73.9 0 0 54.24 338.03
  L 54.75 335.75
  Q 54.84 335.37 55.22 335.40
  Q 58.57 335.68 61.67 334.46
  A 0.87 0.87 0.0 0 0 62.22 333.61
  Q 62.05 329.33 60.32 325.52
  C 59.79 324.33 58.45 323.34 58.18 321.67
  Q 58.10 321.16 57.65 320.92
  Q 54.81 319.40 54.60 315.86
  Q 54.58 315.49 54.66 315.14
  Q 55.02 313.49 53.69 312.29
  A 1.11 1.11 0.0 0 1 53.33 311.57
  C 52.97 307.98 50.94 305.78 50.18 302.61
  Q 49.37 299.25 48.00 296.08
  Q 47.81 295.64 47.93 295.18
  Q 48.27 293.80 47.65 292.53
  A 0.64 0.62 77.4 0 0 47.08 292.16
  L 45.53 292.13
  Q 45.03 292.12 44.74 291.70
  C 43.40 289.77 44.49 288.18 44.44 286.41
  C 44.24 279.50 44.96 272.26 41.22 266.19
  Q 40.95 265.76 41.07 265.27
  C 42.05 261.30 39.11 258.99 35.40 260.46
  Q 34.85 260.68 34.45 260.25
  L 32.89 258.57
  A 0.78 0.78 0.0 0 1 33.82 257.34
  Q 37.21 259.07 40.05 256.68
  A 1.17 1.15 -22.5 0 0 40.47 255.69
  Q 39.64 246.30 40.67 237.02
  C 40.90 235.00 40.35 232.30 41.44 229.88
  Q 41.64 229.44 41.50 228.99
  C 40.93 227.05 41.61 224.91 41.66 223.52
  Q 41.80 219.07 41.79 214.58
  A 1.96 1.95 -30.8 0 1 42.05 213.57
  Q 43.14 211.69 41.54 210.30
  A 0.66 0.65 26.6 0 1 41.32 209.65
  L 42.23 205.24
  A 0.36 0.35 81.3 0 1 42.41 204.99
  Q 44.68 203.64 44.71 200.95
  Q 44.71 200.39 45.10 199.98
  Q 46.74 198.24 45.86 195.84
  Q 45.68 195.35 45.86 194.86
  L 47.07 191.55
  Q 47.23 191.12 47.00 190.72
  L 46.82 190.41
  Q 46.55 189.96 46.75 189.48
  Q 48.23 185.89 51.10 183.35
  Q 52.38 182.22 52.23 181.35
  Q 52.05 180.36 50.90 179.15
  A 0.80 0.79 -44.7 0 1 50.91 178.03
  Q 53.99 174.98 54.83 170.98
  C 55.65 167.11 53.42 164.62 56.80 160.82
  Q 57.17 160.41 57.25 159.87
  Q 57.61 157.60 59.76 156.76
  Q 60.15 156.60 59.75 156.49
  Q 59.59 156.45 59.44 156.40
  A 0.07 0.07 0.0 0 1 59.46 156.27
  L 61.93 156.24
  Q 62.35 156.24 62.39 155.81
  L 62.74 151.70
  A 2.61 2.60 88.9 0 1 65.01 149.33
  L 68.33 148.91
  Q 69.62 148.75 68.35 148.46
  C 66.69 148.07 65.66 147.49 65.27 145.69
  C 63.83 139.10 65.26 136.12 71.01 132.88
  A 1.30 1.27 -1.1 0 0 71.54 132.34
  L 74.56 126.60
  A 1.23 1.23 0.0 0 1 75.37 125.97
  C 81.45 124.61 76.00 117.36 83.51 118.00
  A 1.84 1.83 -63.0 0 0 84.85 117.56
  Q 86.99 115.66 86.90 112.65
  Q 86.88 112.10 87.32 111.78
  C 89.03 110.55 91.92 112.19 92.87 110.15
  C 93.91 107.90 92.76 106.01 95.07 103.79
  Q 95.80 103.09 98.23 102.46
  C 102.75 101.28 101.36 98.27 103.95 95.87
  C 105.67 94.28 107.91 93.53 109.72 91.66
  A 1.12 1.10 66.1 0 0 110.04 90.81
  C 109.69 84.10 120.74 88.86 124.27 85.67
  C 126.74 83.44 124.07 78.34 128.99 79.01
  C 134.93 79.83 131.98 73.63 134.57 71.66
  C 136.68 70.06 139.27 71.30 141.57 69.65
  A 1.12 1.11 -17.5 0 0 142.02 68.80
  C 142.20 64.16 144.96 64.07 148.62 63.47
  A 1.05 1.05 0.0 0 0 149.36 62.96
  L 151.64 59.10
  A 1.50 1.47 -86.2 0 1 152.30 58.51
  C 154.59 57.51 156.57 56.03 159.05 55.79
  C 162.32 55.46 171.42 56.60 172.90 53.39
  Q 173.11 52.92 173.03 52.42
  C 172.48 49.18 174.62 48.35 177.44 48.24
  C 183.23 48.00 186.84 48.96 191.21 44.39
  A 1.44 1.44 0.0 0 1 193.68 45.17
  C 194.22 48.80 201.45 47.90 204.23 48.10
  C 208.48 48.41 210.61 51.45 211.34 55.32
  Q 211.44 55.86 211.87 55.51
  C 215.25 52.74 218.67 53.02 222.32 52.16
  C 225.03 51.52 227.10 49.29 230.18 48.44
  Q 230.65 48.31 231.10 48.51
  C 234.30 49.95 237.85 48.93 240.55 49.11
  Q 252.10 49.90 263.67 50.18
  A 1.94 1.92 -29.1 0 1 264.60 50.44
  C 267.67 52.25 279.79 53.79 280.56 48.56
  A 2.01 2.00 -86.7 0 1 282.48 46.84
  Q 290.11 46.60 297.98 46.18
  C 302.45 45.94 305.48 47.02 306.88 51.31
  A 0.99 0.98 89.3 0 0 307.52 51.94
  C 315.04 54.34 323.09 54.01 330.89 54.70
  A 1.36 1.35 -1.0 0 1 332.11 55.87
  Q 332.37 57.84 334.12 58.73
  Q 334.56 58.95 334.82 59.37
  L 336.88 62.69
  A 1.17 1.17 0.0 0 1 337.06 63.41
  C 336.80 66.37 341.50 65.99 343.97 65.93
  Q 344.45 65.92 344.73 66.32
  C 346.56 68.88 348.15 68.95 350.46 70.67
  C 354.94 74.00 359.62 75.00 364.24 77.76
  C 367.74 79.86 369.23 83.81 373.01 85.47
  Q 377.68 87.53 382.05 90.13
  Q 382.50 90.40 382.72 90.87
  Q 383.90 93.38 386.67 93.76
  Q 387.12 93.82 387.20 94.27
  C 387.72 97.21 391.61 100.68 394.22 104.09
  Q 394.30 104.19 396.00 107.04
  C 397.92 110.26 401.32 109.41 403.48 111.73
  Q 403.80 112.07 404.23 112.26
  L 405.24 112.71
  Q 405.69 112.91 405.83 113.39
  Q 406.88 117.09 410.86 117.61
  Q 411.36 117.67 411.70 118.04
  Q 414.08 120.59 414.15 124.26
  Q 414.32 132.43 415.52 141.70
  C 415.75 143.56 416.74 144.69 418.56 144.79
  Q 419.13 144.82 419.50 144.38
  L 422.73 140.61
  Q 423.07 140.21 423.58 140.10
  C 427.38 139.26 430.24 142.50 429.23 145.99
  Q 427.96 150.40 429.66 153.49
  Q 429.95 154.02 430.54 154.19
  Q 433.71 155.12 436.24 157.30
  A 1.60 1.59 -73.0 0 1 436.79 158.34
  C 437.61 165.04 430.37 164.97 431.43 170.32
  Q 431.53 170.82 431.86 171.20
  Q 433.81 173.39 433.71 176.39
  A 2.52 2.51 8.5 0 0 435.57 178.89
  C 438.45 179.67 442.56 185.79 445.79 190.52
  Q 446.07 190.93 446.11 191.41
  Q 446.41 195.06 447.84 198.32
  C 448.75 200.41 449.03 202.84 450.29 204.89
  C 450.88 205.86 450.98 206.38 450.46 207.35
  Q 450.24 207.75 450.37 208.19
  Q 451.58 212.26 454.43 215.44
  A 0.90 0.90 0.0 0 1 454.67 216.10
  Q 454.66 216.68 454.98 217.10
  Q 455.33 217.56 455.17 218.10
  C 453.68 223.16 452.18 225.24 454.82 230.40
  A 1.32 1.32 0.0 0 0 455.45 231.00
  C 458.00 232.10 457.48 233.99 457.74 236.18
  Q 457.79 236.63 458.07 236.99
  C 460.95 240.64 456.30 241.59 455.21 244.10
  C 453.37 248.32 449.94 251.83 451.65 256.59
  A 1.25 1.18 -83.3 0 0 452.09 257.18
  Q 453.37 258.07 454.01 259.49
  A 1.43 1.42 41.7 0 1 454.07 260.47
  Q 453.59 262.08 453.78 263.76
  Q 454.05 266.20 452.04 266.00
  A 0.78 0.78 0.0 0 0 451.18 266.73
  Q 450.58 276.85 451.13 286.81
  Q 451.24 288.80 450.25 292.00
  Q 450.09 292.50 450.19 293.02
  L 451.14 297.93
  A 0.92 0.91 -31.9 0 1 450.97 298.64
  Q 449.11 301.11 449.96 303.96
  Q 450.09 304.39 449.72 304.65
  L 447.18 306.43
  Q 446.74 306.74 446.70 307.27
  Q 446.45 311.17 443.23 313.31
  Q 442.77 313.61 442.55 314.10
  C 439.92 319.85 437.13 325.03 435.39 331.39
  C 434.51 334.62 431.31 344.98 427.70 346.67
  A 1.53 1.49 -88.5 0 0 426.98 347.37
  Q 425.60 350.14 424.01 352.76
  C 422.25 355.65 419.30 358.19 417.29 361.36
  Q 416.97 361.87 417.55 361.74
  Q 418.02 361.64 418.20 361.07
  A 0.92 0.91 -88.7 0 1 418.83 360.46
  L 421.06 359.82
  Q 421.58 359.67 421.45 360.20
  Q 420.01 365.81 414.98 368.66
  Q 414.45 368.95 414.31 369.54
  L 413.11 374.56
  Q 413.00 375.03 412.52 374.98
  Q 411.45 374.85 410.84 375.81
  Q 410.56 376.24 410.11 376.48
  C 407.63 377.82 404.48 377.98 404.74 381.75
  Q 404.77 382.23 404.47 382.60
  L 401.12 386.66
  Q 400.80 387.04 400.31 387.14
  Q 398.28 387.56 396.42 386.54
  A 0.58 0.58 0.0 0 0 395.59 386.85
  Q 394.72 389.30 392.24 390.24
  A 1.26 1.25 89.1 0 0 391.48 391.03
  C 390.06 395.22 388.10 396.04 385.80 399.39
  Q 385.57 399.71 385.17 399.73
  Q 384.97 399.73 384.81 399.84
  Q 384.70 399.91 384.64 400.09
  Q 383.87 402.21 382.70 404.14
  Q 382.45 404.55 381.97 404.46
  Q 379.89 404.08 378.56 405.88
  A 0.67 0.66 32.1 0 1 377.71 406.07
  Q 375.76 405.05 374.80 406.47
  C 373.85 407.88 374.44 410.57 373.68 412.48
  A 0.69 0.68 -66.7 0 1 372.77 412.85
  Q 369.91 411.53 367.27 413.03
  A 0.69 0.65 83.2 0 0 366.95 413.46
  L 365.58 419.07
  A 0.90 0.90 0.0 0 1 364.86 419.74
  L 359.00 420.75
  A 1.10 1.09 -83.7 0 0 358.16 421.43
  Q 357.25 423.78 358.38 426.03
  A 2.08 2.08 0.0 0 1 356.49 429.04
  L 344.98 428.90
  A 2.20 2.20 0.0 0 0 342.76 431.09
  L 342.74 435.80
  A 0.79 0.79 0.0 0 1 341.66 436.53
  Q 340.48 436.05 339.33 436.58
  Q 338.38 437.02 338.73 436.04
  Q 339.11 434.93 338.86 434.55
  Z
  M 384.26 207.82
  L 389.96 205.29
  Q 390.46 205.07 390.58 204.54
  L 400.74 162.45
  A 0.62 0.62 0.0 0 0 400.42 161.76
  L 375.63 149.15
  A 2.18 2.15 45.4 0 0 373.71 149.12
  L 351.15 159.94
  A 0.56 0.55 -36.0 0 1 350.54 159.85
  Q 321.16 132.29 283.80 121.51
  C 279.35 120.23 275.61 115.59 271.96 113.19
  C 248.33 97.69 216.48 101.80 198.72 124.47
  A 1.92 1.92 0.0 0 1 197.95 125.05
  C 170.91 135.80 149.49 149.25 131.06 172.06
  C 129.96 173.42 128.70 174.75 126.74 175.13
  C 111.19 178.14 95.73 184.35 80.93 190.11
  A 0.60 0.59 -11.0 0 0 80.55 190.66
  Q 80.37 213.96 80.60 237.34
  C 80.85 262.10 94.27 283.52 114.85 296.81
  Q 115.26 297.08 115.38 297.56
  C 121.49 323.69 136.38 346.69 155.35 365.28
  C 187.11 396.40 238.05 406.08 280.23 396.66
  C 340.02 383.32 384.14 332.73 390.97 272.25
  Q 394.82 238.18 383.98 208.49
  Q 383.81 208.03 384.26 207.82
  Z
  M 205.01 434.23
  C 194.45 425.56 185.09 441.50 194.89 448.05
  Q 199.63 451.22 204.95 446.75
  Q 205.53 446.27 205.51 447.02
  L 205.47 448.45
  Q 205.46 449.00 206.01 449.00
  L 207.62 449.00
  Q 208.25 449.00 208.25 448.38
  L 208.25 420.50
  Q 208.25 420.00 207.75 420.00
  L 206.00 420.00
  Q 205.50 420.00 205.50 420.50
  L 205.50 433.99
  Q 205.50 434.63 205.01 434.23
  Z
  M 269.55 428.12
  C 267.05 438.34 285.19 434.82 285.57 442.14
  C 285.89 448.34 273.12 448.58 272.10 443.28
  Q 272.00 442.75 271.46 442.75
  L 269.44 442.75
  Q 268.69 442.75 268.92 443.46
  C 271.61 451.67 287.08 451.56 288.24 442.83
  C 289.54 433.01 276.69 436.51 272.88 431.13
  C 271.12 428.66 272.78 426.01 275.42 425.11
  Q 280.85 423.26 284.61 427.95
  A 1.12 1.12 0.0 0 0 286.54 426.86
  C 284.24 420.50 271.32 420.94 269.55 428.12
  Z
  M 253.06 434.18
  Q 252.81 433.39 253.27 432.73
  A 0.45 0.45 0.0 0 0 252.91 432.02
  L 251.02 431.99
  Q 250.52 431.98 250.52 432.48
  L 250.46 448.48
  Q 250.46 449.00 250.98 449.00
  L 252.56 449.00
  Q 253.26 449.00 253.18 448.31
  C 252.74 444.37 252.02 432.88 258.68 435.15
  Q 259.25 435.34 259.25 434.74
  L 259.25 432.51
  A 0.67 0.67 0.0 0 0 258.73 431.86
  Q 255.15 431.07 253.74 434.22
  Q 253.35 435.09 253.06 434.18
  Z"
/>
<path fill="#09244b" d="
  M 383.98 208.49
  Q 394.82 238.18 390.97 272.25
  C 384.14 332.73 340.02 383.32 280.23 396.66
  C 238.05 406.08 187.11 396.40 155.35 365.28
  C 136.38 346.69 121.49 323.69 115.38 297.56
  Q 115.26 297.08 114.85 296.81
  C 94.27 283.52 80.85 262.10 80.60 237.34
  Q 80.37 213.96 80.55 190.66
  A 0.60 0.59 -11.0 0 1 80.93 190.11
  C 95.73 184.35 111.19 178.14 126.74 175.13
  C 128.70 174.75 129.96 173.42 131.06 172.06
  C 149.49 149.25 170.91 135.80 197.95 125.05
  A 1.92 1.92 0.0 0 0 198.72 124.47
  C 216.48 101.80 248.33 97.69 271.96 113.19
  C 275.61 115.59 279.35 120.23 283.80 121.51
  Q 321.16 132.29 350.54 159.85
  A 0.56 0.55 -36.0 0 0 351.15 159.94
  L 373.71 149.12
  A 2.18 2.15 45.4 0 1 375.63 149.15
  L 400.42 161.76
  A 0.62 0.62 0.0 0 1 400.74 162.45
  L 390.58 204.54
  Q 390.46 205.07 389.96 205.29
  L 384.26 207.82
  Q 383.81 208.03 383.98 208.49
  Z
  M 212.45 126.13
  Q 207.29 129.33 204.22 134.96
  C 194.18 153.33 196.03 174.85 212.10 189.14
  Q 212.47 189.47 212.85 189.15
  L 218.27 184.68
  L 225.35 180.73
  Q 225.90 180.42 225.28 180.29
  Q 216.53 178.47 211.40 171.10
  Q 211.02 170.56 211.67 170.45
  Q 222.22 168.55 230.10 175.43
  A 0.39 0.39 0.0 0 0 230.73 175.05
  C 228.68 166.09 222.12 159.71 221.21 150.27
  A 0.53 0.52 -78.8 0 1 221.98 149.75
  Q 238.25 158.43 240.86 176.91
  Q 240.96 177.57 241.62 177.54
  L 244.38 177.40
  Q 244.90 177.37 245.07 176.88
  C 247.81 168.86 254.67 162.55 263.64 164.03
  A 0.35 0.34 22.2 0 1 263.87 164.57
  L 254.41 178.09
  A 0.47 0.47 0.0 0 0 254.68 178.81
  Q 261.35 180.52 267.26 184.35
  L 270.80 187.11
  A 0.99 0.99 0.0 0 0 272.11 187.03
  C 290.76 168.62 287.43 139.61 266.85 123.89
  Q 238.90 105.83 212.45 126.13
  Z
  M 295.46 149.42
  Q 298.84 176.63 279.76 195.60
  A 0.49 0.49 0.0 0 0 279.69 196.20
  L 284.04 203.06
  A 0.33 0.32 74.6 0 0 284.29 203.21
  C 328.17 204.19 332.11 263.12 290.83 272.55
  Q 290.29 272.68 290.28 273.23
  L 290.17 284.52
  Q 290.17 285.08 290.55 284.67
  C 296.04 278.75 300.93 274.60 308.88 272.78
  Q 309.37 272.67 309.63 272.23
  C 319.73 254.68 332.35 240.87 352.72 235.68
  C 356.54 234.71 361.81 237.11 359.90 242.06
  A 1.20 1.18 -88.7 0 1 359.18 242.76
  C 345.60 247.53 335.45 252.69 326.63 265.22
  L 322.49 271.60
  Q 322.13 272.16 322.80 272.22
  Q 326.42 272.58 329.49 274.50
  Q 329.96 274.79 330.31 274.38
  L 335.05 268.79
  Q 338.54 264.60 342.27 259.54
  C 344.79 256.14 349.73 255.52 351.05 260.26
  C 351.85 263.17 348.88 266.83 347.06 268.96
  Q 346.72 269.36 347.06 269.77
  L 349.88 273.18
  Q 350.14 273.51 350.43 273.20
  C 352.97 270.52 356.32 263.94 360.80 266.47
  C 367.19 270.07 358.88 278.00 356.67 281.64
  Q 356.41 282.06 356.57 282.53
  Q 360.01 292.65 359.44 303.51
  C 355.91 335.62 328.56 362.42 300.06 375.06
  Q 272.72 387.18 242.19 379.55
  L 237.99 377.75
  Q 222.39 370.52 213.46 356.68
  Q 213.15 356.19 212.79 356.65
  C 208.03 362.71 202.59 363.97 195.63 366.48
  Q 194.44 365.61 192.28 365.52
  Q 191.75 365.49 191.55 365.98
  L 188.41 373.62
  Q 188.23 374.06 188.66 374.28
  C 211.35 385.48 239.35 391.64 264.61 387.60
  Q 312.65 381.85 346.31 345.06
  Q 358.62 331.61 365.37 317.99
  C 381.72 285.39 385.72 248.13 373.46 213.63
  Q 373.28 213.10 372.77 213.33
  L 363.61 217.41
  L 348.57 224.52
  A 0.98 0.98 0.0 0 1 347.73 224.52
  L 315.98 209.52
  Q 315.43 209.27 315.57 208.68
  L 323.64 173.48
  Q 323.76 172.98 324.23 172.76
  L 330.35 169.94
  L 339.50 165.68
  A 0.26 0.25 53.5 0 0 339.56 165.26
  Q 318.57 146.51 292.30 136.41
  A 0.49 0.49 0.0 0 0 291.65 137.01
  L 295.46 149.42
  Z
  M 158.80 173.89
  L 183.75 175.92
  A 0.82 0.82 0.0 0 1 184.51 176.74
  L 184.48 207.31
  Q 184.48 208.17 185.24 207.77
  Q 193.02 203.67 201.79 203.56
  A 0.90 0.90 0.0 0 0 202.57 203.11
  L 205.30 198.51
  Q 205.58 198.04 205.16 197.69
  Q 185.05 180.85 186.58 153.71
  L 188.88 141.99
  Q 189.04 141.20 188.30 141.54
  Q 163.91 152.82 145.86 172.67
  Q 145.44 173.13 146.06 173.16
  L 158.80 173.89
  Z
  M 332.71 179.66
  A 0.96 0.96 0.0 0 0 332.18 180.32
  L 327.26 203.01
  A 0.96 0.96 0.0 0 0 327.80 204.08
  L 348.12 213.48
  A 0.96 0.96 0.0 0 0 348.92 213.48
  L 381.25 198.45
  A 0.96 0.96 0.0 0 0 381.78 197.81
  L 389.03 168.71
  A 0.96 0.96 0.0 0 0 388.55 167.64
  L 374.70 160.20
  A 0.96 0.96 0.0 0 0 373.83 160.18
  L 332.71 179.66
  Z
  M 100.17 263.99
  L 101.97 267.37
  Q 102.39 268.18 102.62 267.29
  Q 111.80 231.16 144.73 214.82
  Q 158.25 209.34 172.14 205.47
  Q 172.67 205.32 172.67 204.77
  L 172.69 189.52
  Q 172.89 187.09 172.60 187.08
  C 156.18 184.83 138.45 184.01 122.48 188.13
  Q 107.23 192.06 93.09 199.34
  Q 92.65 199.57 92.64 200.07
  Q 92.10 226.56 92.81 239.93
  Q 93.46 251.98 100.17 263.99
  Z
  M 209.75 262.53
  Q 216.06 265.33 222.82 266.66
  Q 223.62 266.82 222.87 267.14
  L 220.62 268.13
  Q 214.40 270.82 207.52 271.92
  Q 207.07 271.99 207.06 272.45
  L 206.86 298.78
  Q 206.85 299.23 207.29 299.17
  Q 232.77 295.42 258.11 296.73
  L 278.50 298.66
  Q 279.00 298.71 279.00 298.20
  L 279.00 272.47
  Q 279.00 271.87 278.41 271.75
  Q 271.20 270.38 264.64 267.10
  A 0.21 0.21 0.0 0 1 264.66 266.72
  C 268.59 265.39 273.23 262.84 277.31 262.64
  C 281.24 262.44 285.52 262.64 288.85 261.83
  C 314.40 255.56 314.70 217.69 287.55 215.95
  Q 282.71 215.26 276.09 217.61
  Q 275.52 217.81 275.43 217.21
  C 269.62 179.93 216.17 180.49 211.15 218.32
  Q 211.13 218.53 210.93 218.44
  C 201.02 213.92 188.22 216.32 182.13 225.90
  C 172.69 240.76 181.90 257.97 198.02 261.97
  Q 202.25 263.01 209.75 262.53
  Z
  M 114.10 280.84
  L 124.77 288.83
  Q 125.23 289.17 125.75 288.91
  L 136.47 283.43
  Q 156.93 272.16 167.31 252.31
  Q 168.60 249.85 166.95 246.17
  Q 164.32 233.31 170.81 221.15
  L 174.45 216.24
  Q 174.74 215.85 174.27 215.97
  C 139.77 224.79 118.23 240.28 110.75 277.02
  Q 110.65 277.51 110.92 277.94
  Q 112.00 279.62 114.10 280.84
  Z
  M 137.21 296.75
  L 128.59 301.17
  Q 128.13 301.41 128.30 301.89
  Q 139.40 334.55 165.01 357.65
  Q 165.44 358.03 165.77 357.56
  L 170.58 350.77
  Q 170.91 350.30 170.50 349.89
  Q 156.06 335.46 146.06 317.70
  Q 145.41 316.53 145.25 314.81
  Q 147.10 311.49 148.28 310.70
  Q 171.97 294.83 195.70 310.71
  Q 196.25 311.07 196.25 310.42
  L 196.25 273.02
  A 0.64 0.64 0.0 0 0 195.73 272.39
  Q 183.76 270.28 175.71 261.30
  A 0.48 0.48 0.0 0 0 174.93 261.39
  C 166.31 277.52 153.24 288.38 137.21 296.75
  Z
  M 337.06 316.47
  Q 323.20 330.82 306.37 328.21
  Q 305.83 328.13 305.50 328.55
  C 300.70 334.58 295.78 342.04 291.88 347.17
  Q 287.03 353.56 282.24 359.99
  Q 281.35 361.19 281.67 362.08
  Q 266.89 366.32 252.62 362.49
  C 249.69 356.46 250.66 351.76 254.97 347.26
  C 264.80 336.97 275.45 327.34 285.78 317.39
  A 0.52 0.52 0.0 0 0 285.42 316.50
  L 227.73 316.55
  L 219.62 316.59
  Q 219.06 316.59 218.88 317.12
  C 213.59 332.55 217.15 347.79 228.75 359.08
  C 245.80 375.67 273.42 375.42 294.32 366.55
  C 318.00 356.49 343.11 334.54 348.35 308.08
  Q 351.62 291.62 341.30 278.13
  Q 340.92 277.63 340.54 278.13
  L 338.28 281.16
  Q 337.93 281.63 338.23 282.13
  C 344.05 291.72 344.33 302.24 339.26 312.21
  Q 337.98 314.72 337.06 316.47
  Z
  M 298.60 316.41
  Q 280.64 334.18 262.32 351.56
  C 254.99 358.51 265.32 366.99 272.37 357.83
  Q 287.21 338.55 301.84 319.07
  Q 302.15 318.66 302.64 318.83
  C 316.71 323.89 330.40 314.03 332.87 300.16
  C 336.45 280.05 314.14 275.29 302.31 287.51
  Q 290.10 300.12 298.71 315.61
  Q 298.96 316.06 298.60 316.41
  Z
  M 207.53 307.43
  C 231.45 304.24 254.47 304.38 278.40 307.14
  Q 279.07 307.21 279.03 306.54
  L 278.87 303.67
  Q 278.83 303.02 278.18 302.94
  Q 242.77 298.46 207.39 303.25
  A 0.57 0.56 85.4 0 0 206.91 303.82
  L 206.98 306.97
  Q 207.00 307.50 207.53 307.43
  Z
  M 158.67 320.23
  Q 167.71 335.57 181.15 347.42
  Q 177.54 357.86 169.68 367.00
  A 0.75 0.75 0.0 0 0 169.77 368.08
  L 176.89 373.82
  Q 177.51 374.31 177.82 373.59
  L 185.53 355.78
  Q 197.97 359.30 205.99 350.09
  A 2.31 2.30 -29.8 0 0 206.52 348.16
  C 205.14 340.51 203.97 333.09 199.12 326.87
  Q 190.99 314.93 177.47 312.12
  Q 166.35 310.05 156.59 315.79
  Q 156.09 316.08 156.39 316.57
  L 158.67 320.23
  Z
  M 207.28 322.37
  A 0.35 0.35 0.0 0 0 207.89 322.30
  L 210.06 316.90
  A 0.35 0.35 0.0 0 0 209.71 316.42
  L 204.10 316.83
  A 0.35 0.35 0.0 0 0 203.84 317.37
  L 207.28 322.37
  Z"
/>
<path fill="#4bb628" d="
  M 266.85 123.89
  Q 265.30 126.45 266.52 128.46
  C 277.95 147.26 282.14 165.92 267.26 184.35
  Q 261.35 180.52 254.68 178.81
  A 0.47 0.47 0.0 0 1 254.41 178.09
  L 263.87 164.57
  A 0.35 0.34 22.2 0 0 263.64 164.03
  C 254.67 162.55 247.81 168.86 245.07 176.88
  Q 244.90 177.37 244.38 177.40
  L 241.62 177.54
  Q 240.96 177.57 240.86 176.91
  Q 238.25 158.43 221.98 149.75
  A 0.53 0.52 -78.8 0 0 221.21 150.27
  C 222.12 159.71 228.68 166.09 230.73 175.05
  A 0.39 0.39 0.0 0 1 230.10 175.43
  Q 222.22 168.55 211.67 170.45
  Q 211.02 170.56 211.40 171.10
  Q 216.53 178.47 225.28 180.29
  Q 225.90 180.42 225.35 180.73
  L 218.27 184.68
  C 204.16 173.49 201.08 159.03 203.12 141.71
  Q 203.26 140.55 204.38 140.87
  C 210.71 142.69 213.90 139.05 216.09 133.86
  Q 217.58 130.37 220.65 127.99
  Q 220.87 127.82 220.69 127.61
  Q 220.60 127.50 220.47 127.48
  Q 220.31 127.46 220.07 127.64
  Q 218.54 128.75 216.98 129.72
  Q 216.56 129.98 216.12 129.76
  Q 213.74 128.53 212.45 126.13
  Q 238.90 105.83 266.85 123.89
  Z"
/>
<path fill="#199830" d="
  M 266.85 123.89
  C 287.43 139.61 290.76 168.62 272.11 187.03
  A 0.99 0.99 0.0 0 1 270.80 187.11
  L 267.26 184.35
  C 282.14 165.92 277.95 147.26 266.52 128.46
  Q 265.30 126.45 266.85 123.89
  Z"
/>
<path fill="#a6d961" d="
  M 212.45 126.13
  Q 213.74 128.53 216.12 129.76
  Q 216.56 129.98 216.98 129.72
  Q 218.54 128.75 220.07 127.64
  Q 220.31 127.46 220.47 127.48
  Q 220.60 127.50 220.69 127.61
  Q 220.87 127.82 220.65 127.99
  Q 217.58 130.37 216.09 133.86
  C 213.90 139.05 210.71 142.69 204.38 140.87
  Q 203.26 140.55 203.12 141.71
  C 201.08 159.03 204.16 173.49 218.27 184.68
  L 212.85 189.15
  Q 212.47 189.47 212.10 189.14
  C 196.03 174.85 194.18 153.33 204.22 134.96
  Q 207.29 129.33 212.45 126.13
  Z"
/>
<path fill="#4bb628" d="
  M 330.35 169.94
  Q 314.69 156.34 295.46 149.42
  L 291.65 137.01
  A 0.49 0.49 0.0 0 1 292.30 136.41
  Q 318.57 146.51 339.56 165.26
  A 0.26 0.25 53.5 0 1 339.50 165.68
  L 330.35 169.94
  Z"
/>
<path fill="#4bb628" d="
  M 186.58 153.71
  Q 171.44 161.64 158.80 173.89
  L 146.06 173.16
  Q 145.44 173.13 145.86 172.67
  Q 163.91 152.82 188.30 141.54
  Q 189.04 141.20 188.88 141.99
  L 186.58 153.71
  Z"
/>
<path fill="#0897bc" d="
  M 295.46 149.42
  Q 314.69 156.34 330.35 169.94
  L 324.23 172.76
  Q 323.76 172.98 323.64 173.48
  L 315.57 208.68
  Q 315.43 209.27 315.98 209.52
  L 347.73 224.52
  A 0.98 0.98 0.0 0 0 348.57 224.52
  L 363.61 217.41
  C 373.97 246.72 371.45 274.23 361.02 303.20
  Q 360.18 303.57 359.44 303.51
  Q 360.01 292.65 356.57 282.53
  Q 356.41 282.06 356.67 281.64
  C 358.88 278.00 367.19 270.07 360.80 266.47
  C 356.32 263.94 352.97 270.52 350.43 273.20
  Q 350.14 273.51 349.88 273.18
  L 347.06 269.77
  Q 346.72 269.36 347.06 268.96
  C 348.88 266.83 351.85 263.17 351.05 260.26
  C 349.73 255.52 344.79 256.14 342.27 259.54
  Q 338.54 264.60 335.05 268.79
  L 326.63 265.22
  C 335.45 252.69 345.60 247.53 359.18 242.76
  A 1.20 1.18 -88.7 0 0 359.90 242.06
  C 361.81 237.11 356.54 234.71 352.72 235.68
  C 332.35 240.87 319.73 254.68 309.63 272.23
  Q 309.37 272.67 308.88 272.78
  C 300.93 274.60 296.04 278.75 290.55 284.67
  Q 290.17 285.08 290.17 284.52
  L 290.28 273.23
  Q 290.29 272.68 290.83 272.55
  C 332.11 263.12 328.17 204.19 284.29 203.21
  A 0.33 0.32 74.6 0 1 284.04 203.06
  L 279.69 196.20
  A 0.49 0.49 0.0 0 1 279.76 195.60
  Q 298.84 176.63 295.46 149.42
  Z"
/>
<path fill="#0897bc" d="
  M 186.58 153.71
  Q 185.05 180.85 205.16 197.69
  Q 205.58 198.04 205.30 198.51
  L 202.57 203.11
  A 0.90 0.90 0.0 0 1 201.79 203.56
  Q 193.02 203.67 185.24 207.77
  Q 184.48 208.17 184.48 207.31
  L 184.51 176.74
  A 0.82 0.82 0.0 0 0 183.75 175.92
  L 158.80 173.89
  Q 171.44 161.64 186.58 153.71
  Z"
/>
<path fill="#4bb628" d="
  M 332.71 179.66
  L 373.83 160.18
  A 0.96 0.96 0.0 0 1 374.70 160.20
  L 388.55 167.64
  A 0.96 0.96 0.0 0 1 389.03 168.71
  L 381.78 197.81
  A 0.96 0.96 0.0 0 1 381.25 198.45
  L 348.92 213.48
  A 0.96 0.96 0.0 0 1 348.12 213.48
  L 327.80 204.08
  A 0.96 0.96 0.0 0 1 327.26 203.01
  L 332.18 180.32
  A 0.96 0.96 0.0 0 1 332.71 179.66
  Z
  M 356.32 189.28
  Q 355.43 190.20 354.70 189.15
  C 353.01 186.73 349.89 182.92 346.73 183.13
  C 343.71 183.33 341.28 186.95 343.74 189.51
  Q 345.47 191.30 350.95 196.47
  C 353.75 199.11 356.75 200.71 359.75 197.50
  Q 368.61 188.06 377.60 178.73
  C 382.05 174.12 375.83 168.73 371.51 173.36
  Q 363.80 181.62 356.32 189.28
  Z"
/>
<path fill="#ffffff" d="
  M 356.32 189.28
  Q 363.80 181.62 371.51 173.36
  C 375.83 168.73 382.05 174.12 377.60 178.73
  Q 368.61 188.06 359.75 197.50
  C 356.75 200.71 353.75 199.11 350.95 196.47
  Q 345.47 191.30 343.74 189.51
  C 341.28 186.95 343.71 183.33 346.73 183.13
  C 349.89 182.92 353.01 186.73 354.70 189.15
  Q 355.43 190.20 356.32 189.28
  Z"
/>
<path fill="#d6e8c6" d="
  M 172.60 187.08
  Q 163.66 188.19 154.92 188.60
  Q 140.93 189.24 137.24 189.76
  Q 116.31 192.70 97.26 202.26
  A 0.83 0.81 77.5 0 0 96.81 202.98
  Q 96.58 222.24 96.88 233.56
  Q 97.26 247.61 100.17 263.99
  Q 93.46 251.98 92.81 239.93
  Q 92.10 226.56 92.64 200.07
  Q 92.65 199.57 93.09 199.34
  Q 107.23 192.06 122.48 188.13
  C 138.45 184.01 156.18 184.83 172.60 187.08
  Z"
/>
<path fill="#4bb628" d="
  M 172.60 187.08
  Q 172.89 187.09 172.69 189.52
  Q 171.63 189.29 171.00 190.01
  Q 160.80 201.61 148.59 211.10
  Q 146.55 212.68 144.73 214.82
  Q 111.80 231.16 102.62 267.29
  Q 102.39 268.18 101.97 267.37
  L 100.17 263.99
  Q 97.26 247.61 96.88 233.56
  Q 96.58 222.24 96.81 202.98
  A 0.83 0.81 77.5 0 1 97.26 202.26
  Q 116.31 192.70 137.24 189.76
  Q 140.93 189.24 154.92 188.60
  Q 163.66 188.19 172.60 187.08
  Z"
/>
<path fill="#199830" d="
  M 172.69 189.52
  L 172.67 204.77
  Q 172.67 205.32 172.14 205.47
  Q 158.25 209.34 144.73 214.82
  Q 146.55 212.68 148.59 211.10
  Q 160.80 201.61 171.00 190.01
  Q 171.63 189.29 172.69 189.52
  Z"
/>
<path fill="#ffffff" d="
  M 287.55 215.95
  Q 293.06 221.39 293.72 224.05
  C 298.27 242.31 280.96 251.19 265.71 251.13
  Q 265.19 251.13 265.54 250.73
  Q 272.60 242.77 276.47 232.82
  A 0.24 0.24 0.0 0 0 276.05 232.60
  C 262.00 251.74 245.27 264.11 220.49 259.17
  C 216.75 258.43 212.83 260.68 209.75 262.53
  Q 202.25 263.01 198.02 261.97
  C 181.90 257.97 172.69 240.76 182.13 225.90
  C 188.22 216.32 201.02 213.92 210.93 218.44
  Q 211.13 218.53 211.15 218.32
  C 216.17 180.49 269.62 179.93 275.43 217.21
  Q 275.52 217.81 276.09 217.61
  Q 282.71 215.26 287.55 215.95
  Z"
/>
<path fill="#4bb628" d="
  M 365.37 317.99
  Q 362.16 310.83 361.02 303.20
  C 371.45 274.23 373.97 246.72 363.61 217.41
  L 372.77 213.33
  Q 373.28 213.10 373.46 213.63
  C 385.72 248.13 381.72 285.39 365.37 317.99
  Z"
/>
<path fill="#d6e8c6" d="
  M 170.81 221.15
  Q 124.95 234.51 114.10 280.84
  Q 112.00 279.62 110.92 277.94
  Q 110.65 277.51 110.75 277.02
  C 118.23 240.28 139.77 224.79 174.27 215.97
  Q 174.74 215.85 174.45 216.24
  L 170.81 221.15
  Z"
/>
<path fill="#dce3ec" d="
  M 287.55 215.95
  C 314.70 217.69 314.40 255.56 288.85 261.83
  C 285.52 262.64 281.24 262.44 277.31 262.64
  C 273.23 262.84 268.59 265.39 264.66 266.72
  A 0.21 0.21 0.0 0 0 264.64 267.10
  Q 271.20 270.38 278.41 271.75
  Q 279.00 271.87 279.00 272.47
  L 279.00 298.20
  Q 279.00 298.71 278.50 298.66
  L 258.11 296.73
  C 258.51 289.38 259.63 278.44 258.13 271.42
  Q 258.02 270.88 257.48 271.00
  Q 239.63 274.88 222.00 270.28
  A 1.02 1.00 84.8 0 1 221.33 269.71
  L 220.62 268.13
  L 222.87 267.14
  Q 223.62 266.82 222.82 266.66
  Q 216.06 265.33 209.75 262.53
  C 212.83 260.68 216.75 258.43 220.49 259.17
  C 245.27 264.11 262.00 251.74 276.05 232.60
  A 0.24 0.24 0.0 0 1 276.47 232.82
  Q 272.60 242.77 265.54 250.73
  Q 265.19 251.13 265.71 251.13
  C 280.96 251.19 298.27 242.31 293.72 224.05
  Q 293.06 221.39 287.55 215.95
  Z"
/>
<path fill="#4bb628" d="
  M 170.81 221.15
  Q 164.32 233.31 166.95 246.17
  Q 158.10 263.20 141.59 274.26
  C 137.89 276.74 134.35 278.01 136.47 283.43
  L 125.75 288.91
  Q 125.23 289.17 124.77 288.83
  L 114.10 280.84
  Q 124.95 234.51 170.81 221.15
  Z"
/>
<path fill="#199830" d="
  M 166.95 246.17
  Q 168.60 249.85 167.31 252.31
  Q 156.93 272.16 136.47 283.43
  C 134.35 278.01 137.89 276.74 141.59 274.26
  Q 158.10 263.20 166.95 246.17
  Z"
/>
<path fill="#0897bc" d="
  M 145.25 314.81
  Q 144.41 314.82 144.28 314.53
  Q 140.55 305.87 137.21 296.75
  C 153.24 288.38 166.31 277.52 174.93 261.39
  A 0.48 0.48 0.0 0 1 175.71 261.30
  Q 183.76 270.28 195.73 272.39
  A 0.64 0.64 0.0 0 1 196.25 273.02
  L 196.25 310.42
  Q 196.25 311.07 195.70 310.71
  Q 171.97 294.83 148.28 310.70
  Q 147.10 311.49 145.25 314.81
  Z"
/>
<path fill="#dce3ec" d="
  M 326.63 265.22
  L 335.05 268.79
  L 330.31 274.38
  Q 329.96 274.79 329.49 274.50
  Q 326.42 272.58 322.80 272.22
  Q 322.13 272.16 322.49 271.60
  L 326.63 265.22
  Z"
/>
<path fill="#ffffff" d="
  M 220.62 268.13
  L 221.33 269.71
  A 1.02 1.00 84.8 0 0 222.00 270.28
  Q 239.63 274.88 257.48 271.00
  Q 258.02 270.88 258.13 271.42
  C 259.63 278.44 258.51 289.38 258.11 296.73
  Q 232.77 295.42 207.29 299.17
  Q 206.85 299.23 206.86 298.78
  L 207.06 272.45
  Q 207.07 271.99 207.52 271.92
  Q 214.40 270.82 220.62 268.13
  Z"
/>
<path fill="#ffffff" d="
  M 227.73 316.55
  C 222.37 338.88 229.64 356.14 252.62 362.49
  Q 266.89 366.32 281.67 362.08
  Q 318.84 350.62 337.06 316.47
  Q 337.98 314.72 339.26 312.21
  C 344.33 302.24 344.05 291.72 338.23 282.13
  Q 337.93 281.63 338.28 281.16
  L 340.54 278.13
  Q 340.92 277.63 341.30 278.13
  Q 351.62 291.62 348.35 308.08
  C 343.11 334.54 318.00 356.49 294.32 366.55
  C 273.42 375.42 245.80 375.67 228.75 359.08
  C 217.15 347.79 213.59 332.55 218.88 317.12
  Q 219.06 316.59 219.62 316.59
  L 227.73 316.55
  Z"
/>
<path fill="#ffffff" d="
  M 298.71 315.61
  Q 290.10 300.12 302.31 287.51
  C 314.14 275.29 336.45 280.05 332.87 300.16
  C 330.40 314.03 316.71 323.89 302.64 318.83
  Q 302.15 318.66 301.84 319.07
  Q 287.21 338.55 272.37 357.83
  C 265.32 366.99 254.99 358.51 262.32 351.56
  Q 280.64 334.18 298.60 316.41
  Q 298.96 316.06 298.71 315.61
  Z
  M 315.1224 290.0988
  A 1.70 1.70 0.0 0 0 314.9714 287.6994
  L 314.8964 287.6333
  A 1.70 1.70 0.0 0 0 312.4970 287.7842
  L 300.8976 300.9412
  A 1.70 1.70 0.0 0 0 301.0486 303.3406
  L 301.1236 303.4067
  A 1.70 1.70 0.0 0 0 303.5230 303.2558
  L 315.1224 290.0988
  Z
  M 322.4508 293.9712
  A 1.62 1.62 0.0 0 0 322.3030 291.6849
  L 322.0926 291.5001
  A 1.62 1.62 0.0 0 0 319.8064 291.6480
  L 306.3292 306.9888
  A 1.62 1.62 0.0 0 0 306.4770 309.2751
  L 306.6874 309.4599
  A 1.62 1.62 0.0 0 0 308.9736 309.3120
  L 322.4508 293.9712
  Z
  M 327.3778 300.6356
  A 1.41 1.41 0.0 0 0 327.2560 298.6453
  L 326.8216 298.2610
  A 1.41 1.41 0.0 0 0 324.8313 298.3827
  L 313.2222 311.5044
  A 1.41 1.41 0.0 0 0 313.3440 313.4947
  L 313.7784 313.8790
  A 1.41 1.41 0.0 0 0 315.7687 313.7573
  L 327.3778 300.6356
  Z"
/>
<rect fill="#09244b" x="-1.75" y="-10.47" transform="translate(308.01,295.52) rotate(41.4)" width="3.50" height="20.94" rx="1.70"/>
<rect fill="#09244b" x="-1.76" y="-11.83" transform="translate(314.39,300.48) rotate(41.3)" width="3.52" height="23.66" rx="1.62"/>
<path fill="#4bb628" d="
  M 137.21 296.75
  Q 140.55 305.87 144.28 314.53
  Q 144.41 314.82 145.25 314.81
  Q 145.41 316.53 146.06 317.70
  Q 156.06 335.46 170.50 349.89
  Q 170.91 350.30 170.58 350.77
  L 165.77 357.56
  Q 165.44 358.03 165.01 357.65
  Q 139.40 334.55 128.30 301.89
  Q 128.13 301.41 128.59 301.17
  L 137.21 296.75
  Z"
/>
<rect fill="#09244b" x="-1.70" y="-10.17" transform="translate(320.30,306.07) rotate(41.5)" width="3.40" height="20.34" rx="1.41"/>
<path fill="#ffffff" d="
  M 278.40 307.14
  C 254.47 304.38 231.45 304.24 207.53 307.43
  Q 207.00 307.50 206.98 306.97
  L 206.91 303.82
  A 0.57 0.56 85.4 0 1 207.39 303.25
  Q 242.77 298.46 278.18 302.94
  Q 278.83 303.02 278.87 303.67
  L 279.03 306.54
  Q 279.07 307.21 278.40 307.14
  Z"
/>
<path fill="#199830" d="
  M 361.02 303.20
  Q 362.16 310.83 365.37 317.99
  Q 358.62 331.61 346.31 345.06
  Q 312.65 381.85 264.61 387.60
  Q 252.23 384.90 242.19 379.55
  Q 272.72 387.18 300.06 375.06
  C 328.56 362.42 355.91 335.62 359.44 303.51
  Q 360.18 303.57 361.02 303.20
  Z"
/>
<path fill="#a6d961" d="
  M 177.47 312.12
  Q 178.80 315.43 181.87 317.06
  A 0.34 0.34 0.0 0 1 181.66 317.69
  Q 169.66 315.83 158.67 320.23
  L 156.39 316.57
  Q 156.09 316.08 156.59 315.79
  Q 166.35 310.05 177.47 312.12
  Z"
/>
<path fill="#4bb628" d="
  M 177.47 312.12
  Q 190.99 314.93 199.12 326.87
  Q 197.80 327.61 195.97 326.41
  A 0.63 0.63 0.0 0 0 195.12 327.30
  C 201.45 336.04 200.42 350.25 188.90 354.37
  A 0.79 0.78 -29.8 0 1 188.03 354.14
  L 186.59 352.43
  Q 190.52 339.36 183.80 327.57
  A 0.11 0.11 0.0 0 0 183.60 327.66
  Q 186.27 337.34 181.15 347.42
  Q 167.71 335.57 158.67 320.23
  Q 169.66 315.83 181.66 317.69
  A 0.34 0.34 0.0 0 0 181.87 317.06
  Q 178.80 315.43 177.47 312.12
  Z"
/>
<path fill="#0897bc" d="
  M 252.62 362.49
  C 229.64 356.14 222.37 338.88 227.73 316.55
  L 285.42 316.50
  A 0.52 0.52 0.0 0 1 285.78 317.39
  C 275.45 327.34 264.80 336.97 254.97 347.26
  C 250.66 351.76 249.69 356.46 252.62 362.49
  Z"
/>
<path fill="#0897bc" d="
  M 207.28 322.37
  L 203.84 317.37
  A 0.35 0.35 0.0 0 1 204.10 316.83
  L 209.71 316.42
  A 0.35 0.35 0.0 0 1 210.06 316.90
  L 207.89 322.30
  A 0.35 0.35 0.0 0 1 207.28 322.37
  Z"
/>
<path fill="#0897bc" d="
  M 337.06 316.47
  Q 318.84 350.62 281.67 362.08
  Q 281.35 361.19 282.24 359.99
  Q 287.03 353.56 291.88 347.17
  C 295.78 342.04 300.70 334.58 305.50 328.55
  Q 305.83 328.13 306.37 328.21
  Q 323.20 330.82 337.06 316.47
  Z"
/>
<path fill="#199830" d="
  M 199.12 326.87
  C 203.97 333.09 205.14 340.51 206.52 348.16
  A 2.31 2.30 -29.8 0 1 205.99 350.09
  Q 197.97 359.30 185.53 355.78
  L 186.59 352.43
  L 188.03 354.14
  A 0.79 0.78 -29.8 0 0 188.90 354.37
  C 200.42 350.25 201.45 336.04 195.12 327.30
  A 0.63 0.63 0.0 0 1 195.97 326.41
  Q 197.80 327.61 199.12 326.87
  Z"
/>
<path fill="#ffffff" d="
  M 186.59 352.43
  L 185.53 355.78
  L 177.82 373.59
  Q 177.51 374.31 176.89 373.82
  L 169.77 368.08
  A 0.75 0.75 0.0 0 1 169.68 367.00
  Q 177.54 357.86 181.15 347.42
  Q 186.27 337.34 183.60 327.66
  A 0.11 0.11 0.0 0 1 183.80 327.57
  Q 190.52 339.36 186.59 352.43
  Z"
/>
<path fill="#0897bc" d="
  M 237.99 377.75
  Q 219.99 375.99 203.52 369.67
  Q 199.84 368.26 195.63 366.48
  C 202.59 363.97 208.03 362.71 212.79 356.65
  Q 213.15 356.19 213.46 356.68
  Q 222.39 370.52 237.99 377.75
  Z"
/>
<path fill="#4bb628" d="
  M 195.63 366.48
  Q 199.84 368.26 203.52 369.67
  Q 219.99 375.99 237.99 377.75
  L 242.19 379.55
  Q 252.23 384.90 264.61 387.60
  C 239.35 391.64 211.35 385.48 188.66 374.28
  Q 188.23 374.06 188.41 373.62
  L 191.55 365.98
  Q 191.75 365.49 192.28 365.52
  Q 194.44 365.61 195.63 366.48
  Z"
/>
<path fill="#000000" d="
  M 205.50 433.99
  L 205.50 420.50
  Q 205.50 420.00 206.00 420.00
  L 207.75 420.00
  Q 208.25 420.00 208.25 420.50
  L 208.25 448.38
  Q 208.25 449.00 207.62 449.00
  L 206.01 449.00
  Q 205.46 449.00 205.47 448.45
  L 205.51 447.02
  Q 205.53 446.27 204.95 446.75
  Q 199.63 451.22 194.89 448.05
  C 185.09 441.50 194.45 425.56 205.01 434.23
  Q 205.50 434.63 205.50 433.99
  Z
  M 205.40 440.50
  A 5.97 5.97 0.0 0 0 199.43 434.53
  A 5.97 5.97 0.0 0 0 193.46 440.50
  A 5.97 5.97 0.0 0 0 199.43 446.47
  A 5.97 5.97 0.0 0 0 205.40 440.50
  Z"
/>
<path fill="#000000" d="
  M 338.86 434.55
  L 334.98 434.52
  Q 334.50 434.52 334.50 435.00
  L 334.50 448.50
  Q 334.50 449.00 334.00 449.00
  L 332.25 449.00
  Q 331.75 449.00 331.75 448.50
  L 331.75 434.97
  Q 331.75 434.47 331.25 434.50
  L 330.81 434.52
  Q 329.86 434.58 329.42 434.55
  A 1.28 1.27 -43.3 0 1 329.50 432.00
  L 331.25 432.00
  Q 331.79 432.00 331.77 431.46
  C 331.61 426.87 330.76 418.62 338.52 420.16
  Q 339.00 420.26 339.00 420.75
  L 339.00 422.21
  Q 339.00 422.88 338.36 422.67
  C 332.97 420.82 334.48 428.86 334.51 431.50
  Q 334.52 432.00 335.01 432.00
  L 338.29 432.00
  Q 338.84 432.00 338.96 432.54
  Q 339.17 433.53 338.86 434.55
  Z"
/>
<path fill="#000000" d="
  M 159.46 438.42
  C 154.51 457.49 127.29 448.96 133.75 430.54
  C 141.98 416.15 161.76 422.47 159.46 438.42
  Z
  M 157.01 435.80
  A 10.77 10.77 0.0 0 0 146.24 425.03
  A 10.77 10.77 0.0 0 0 135.47 435.80
  A 10.77 10.77 0.0 0 0 146.24 446.57
  A 10.77 10.77 0.0 0 0 157.01 435.80
  Z"
/>
<path fill="#000000" d="
  M 285.57 442.14
  C 285.19 434.82 267.05 438.34 269.55 428.12
  C 271.32 420.94 284.24 420.50 286.54 426.86
  A 1.12 1.12 0.0 0 1 284.61 427.95
  Q 280.85 423.26 275.42 425.11
  C 272.78 426.01 271.12 428.66 272.88 431.13
  C 276.69 436.51 289.54 433.01 288.24 442.83
  C 287.08 451.56 271.61 451.67 268.92 443.46
  Q 268.69 442.75 269.44 442.75
  L 271.46 442.75
  Q 272.00 442.75 272.10 443.28
  C 273.12 448.58 285.89 448.34 285.57 442.14
  Z"
/>
<circle fill="#e2f2e8" cx="146.24" cy="435.80" r="10.77"/>
<path fill="#000000" d="
  M 233.37 448.38
  Q 227.33 450.89 222.57 446.03
  C 212.77 434.39 236.76 423.14 238.35 440.88
  Q 238.40 441.50 237.78 441.50
  L 223.99 441.50
  Q 223.20 441.50 223.51 442.22
  Q 226.04 447.98 232.21 445.96
  A 1.78 1.77 8.6 0 0 233.07 445.33
  Q 234.43 443.51 236.73 444.05
  Q 237.27 444.17 237.03 444.67
  Q 236.10 446.55 233.37 448.38
  Z
  M 235.15 438.75
  C 233.90 433.39 227.72 433.29 224.26 436.85
  Q 221.94 439.25 225.28 439.25
  L 234.75 439.25
  Q 235.26 439.25 235.15 438.75
  Z"
/>
<path fill="#000000" d="
  M 352.66 442.12
  Q 355.26 447.91 361.43 445.97
  A 1.77 1.76 9.6 0 0 362.31 445.35
  Q 363.72 443.44 366.14 444.09
  Q 366.71 444.24 366.37 444.72
  Q 362.44 450.32 356.71 448.93
  C 344.02 445.84 350.70 427.39 362.17 432.30
  Q 367.61 434.62 367.46 441.05
  Q 367.44 441.50 367.00 441.50
  L 353.06 441.50
  A 0.44 0.44 0.0 0 0 352.66 442.12
  Z
  M 364.40 438.73
  C 362.90 432.95 354.37 432.79 352.87 438.75
  Q 352.74 439.25 353.25 439.25
  L 364.00 439.25
  Q 364.54 439.25 364.40 438.73
  Z"
/>
<path fill="#000000" d="
  M 174.84 444.23
  L 174.75 448.49
  Q 174.74 449.00 174.23 449.00
  L 172.76 449.00
  Q 172.26 449.00 172.26 448.50
  L 172.22 445.28
  L 172.19 432.57
  Q 172.19 431.98 172.77 431.99
  L 174.65 432.02
  A 0.45 0.45 0.0 0 1 175.02 432.71
  Q 174.60 433.39 174.76 434.26
  Q 174.95 435.31 175.38 434.34
  Q 176.72 431.31 180.18 431.78
  Q 180.77 431.85 180.81 432.45
  L 180.96 434.65
  Q 181.00 435.28 180.40 435.07
  C 175.03 433.21 174.47 440.77 174.84 444.23
  Z"
/>
<path fill="#000000" d="
  M 253.74 434.22
  Q 255.15 431.07 258.73 431.86
  A 0.67 0.67 0.0 0 1 259.25 432.51
  L 259.25 434.74
  Q 259.25 435.34 258.68 435.15
  C 252.02 432.88 252.74 444.37 253.18 448.31
  Q 253.26 449.00 252.56 449.00
  L 250.98 449.00
  Q 250.46 449.00 250.46 448.48
  L 250.52 432.48
  Q 250.52 431.98 251.02 431.99
  L 252.91 432.02
  A 0.45 0.45 0.0 0 1 253.27 432.73
  Q 252.81 433.39 253.06 434.18
  Q 253.35 435.09 253.74 434.22
  Z"
/>
<path fill="#000000" d="
  M 316.54 447.97
  Q 316.66 449.42 314.32 448.94
  Q 313.75 448.83 313.75 448.25
  L 313.75 446.98
  A 0.44 0.44 0.0 0 0 312.98 446.68
  Q 309.94 450.11 305.21 449.06
  C 292.23 445.08 302.11 424.14 313.20 434.23
  Q 313.75 434.74 313.75 433.99
  L 313.75 432.63
  Q 313.75 432.00 314.38 432.00
  L 315.76 432.00
  Q 316.38 432.00 316.39 432.62
  L 316.54 447.97
  Z
  M 313.65 440.49
  A 5.97 5.97 0.0 0 0 307.68 434.52
  A 5.97 5.97 0.0 0 0 301.71 440.49
  A 5.97 5.97 0.0 0 0 307.68 446.46
  A 5.97 5.97 0.0 0 0 313.65 440.49
  Z"
/>
<path fill="#e2f2e8" d="
  M 224.26 436.85
  C 227.72 433.29 233.90 433.39 235.15 438.75
  Q 235.26 439.25 234.75 439.25
  L 225.28 439.25
  Q 221.94 439.25 224.26 436.85
  Z"
/>
<path fill="#e2f2e8" d="
  M 352.87 438.75
  C 354.37 432.79 362.90 432.95 364.40 438.73
  Q 364.54 439.25 364.00 439.25
  L 353.25 439.25
  Q 352.74 439.25 352.87 438.75
  Z"
/>
<circle fill="#e2f2e8" cx="199.43" cy="440.50" r="5.97"/>
<circle fill="#e2f2e8" cx="307.68" cy="440.49" r="5.97"/>
</svg>
